<svg version="1.2" xmlns="http://www.w3.org/2000/svg" viewBox="0 0 475 450" width="475" height="450"><style>.a{opacity:0;fill:#ebebeb}.b{opacity:.2;fill:#34dce7}.c{opacity:.1;fill:#34dce7}.d{fill:#224dc2}.e{fill:#1f4489}.f{fill:#479ee8}.g{fill:#2a5fd1}.h{fill:#4795fa}.i{fill:#feb187}.j{fill:#f88b65}.k{fill:#333049}.l{fill:#28243f}.m{fill:#dc9266}.n{fill:#0c2898}.o{fill:#133aaf}.p{fill:#2273db}.q{fill:#22a4fd}.r{opacity:.7;fill:#224dc2}.s{fill:#4895fa}.t{fill:#52fffd}.u{fill:#2293f0}.v{fill:#22b2ff}.w{fill:#67a5ff}.x{fill:#5fffff}.y{fill:#226ee5}.z{fill:#111f9a}.A{fill:#1159c9}.B{fill:#111b54}.C{fill:#34c6e7}.D{fill:#34dce7}.E{fill:#2d61f0}.F{opacity:.3;fill:#34dce7}.G{opacity:.7;fill:#34dce7}.H{fill:none;stroke:#34fbe7;stroke-linecap:round;stroke-linejoin:round}.I{fill:#2753cc}.J{fill:#dbff0e}.K{fill:#ff2995}.L{fill:#34fbe7}.M{fill:#2653cc}.N{fill:#f6d2a2}.O{fill:#010101}.P{fill:#c7b199}.Q{fill:#74cddd}.R{fill:#fff}.S{fill:#231f20}.T{fill:#3577fd}.U{fill:none}.V{fill:none;stroke:#2962ff;stroke-width:.8}.W{fill:#2962ff}</style><path class="a" d="m0 0h475v450h-475z"/><path class="b" d="m246.3 443.5c-59.2 0-107.1-14.4-107.1-32.1 0-17.8 47.9-32.1 107.1-32.1 59.2 0 107 14.3 107 32.1 0 17.7-47.8 32.1-107 32.1z"/><path class="c" d="m246.5 426.5c-43.4 0-78.4-10.5-78.4-23.5 0-13 35-23.5 78.4-23.5 43.3 0 78.3 10.5 78.3 23.5 0 13-35 23.5-78.3 23.5z"/><path class="c" d="m246.5 418.9c-32.4 0-58.6-7.9-58.6-17.6 0-9.7 26.2-17.6 58.6-17.6 32.5 0 58.7 7.9 58.7 17.6 0 9.7-26.2 17.6-58.7 17.6z"/><path class="d" d="m101.5 264.3h280.9v7h-280.9z"/><path class="d" d="m136.4 116c0-2.8 2.2-5 5-5h204.9c2.8 0 5 2.2 5 5v136.5c0 2.8-2.2 5-5 5h-204.9c-2.8 0-5-2.2-5-5z"/><path class="e" d="m345.3 111.6h-202.9q-1.2 0-2.3 0.5-1.1 0.4-2 1.3-0.8 0.8-1.3 1.9-0.4 1.1-0.4 2.3v125.5h214.9v-125.5q0-1.2-0.4-2.3-0.5-1.1-1.3-1.9-0.9-0.9-2-1.3-1.1-0.5-2.3-0.5z"/><path class="f" d="m345.3 115.1h-202.9q-1.2 0-2.3 0.5-1.1 0.5-2 1.3-0.8 0.8-1.3 2-0.4 1.1-0.4 2.3v0.4q0-1.2 0.4-2.3 0.5-1.1 1.3-2 0.9-0.8 2-1.3 1.1-0.4 2.3-0.4h202.9q1.2 0 2.3 0.4 1.1 0.5 2 1.3 0.8 0.9 1.3 2 0.4 1.1 0.4 2.3v-0.4q0-1.2-0.4-2.3-0.5-1.2-1.3-2-0.9-0.8-2-1.3-1.1-0.5-2.3-0.5z"/><path class="g" d="m144.8 120.4h198.2v117.3h-198.2z"/><path class="h" d="m171.1 136.7c0-0.6 0.6-1.1 1.2-1.1h112.6c0.6 0 1.1 0.5 1.1 1.1v0.5c0 0.6-0.5 1.1-1.1 1.1h-112.6c-0.6 0-1.2-0.5-1.2-1.1z"/><path class="h" d="m151.7 127.8c0-0.8 0.6-1.5 1.5-1.5h72c0.8 0 1.4 0.7 1.4 1.5v0.6c0 0.8-0.6 1.5-1.4 1.5h-72c-0.9 0-1.5-0.7-1.5-1.5z"/><path class="h" d="m151.7 136.7c0-0.6 0.5-1.1 1.1-1.1h7.7c0.6 0 1.1 0.5 1.1 1.1v0.5c0 0.6-0.5 1.1-1.1 1.1h-7.7c-0.6 0-1.1-0.5-1.1-1.1z"/><path class="h" d="m152.8 144.9c0-0.4 0.4-0.7 0.8-0.7h58c0.4 0 0.7 0.3 0.7 0.7v0.3c0 0.4-0.3 0.7-0.7 0.7h-58c-0.4 0-0.8-0.3-0.8-0.7z"/><path class="h" d="m152.8 152c0-0.4 0.4-0.8 0.8-0.8h58c0.4 0 0.7 0.4 0.7 0.8v0.2c0 0.4-0.3 0.8-0.7 0.8h-58c-0.4 0-0.8-0.4-0.8-0.8z"/><path class="h" d="m152.8 159c0-0.4 0.4-0.7 0.8-0.7h58c0.4 0 0.7 0.3 0.7 0.7v0.3c0 0.4-0.3 0.7-0.7 0.7h-58c-0.4 0-0.8-0.3-0.8-0.7z"/><path class="h" d="m152.8 166c0-0.4 0.4-0.7 0.8-0.7h58c0.4 0 0.7 0.3 0.7 0.7v0.3c0 0.4-0.3 0.7-0.7 0.7h-58c-0.4 0-0.8-0.3-0.8-0.7z"/><path class="h" d="m152.8 173c0-0.4 0.4-0.7 0.8-0.7h9c0.4 0 0.8 0.3 0.8 0.7v0.3c0 0.4-0.4 0.7-0.8 0.7h-9c-0.4 0-0.8-0.3-0.8-0.7z"/><path class="h" d="m168.2 173c0-0.4 0.3-0.7 0.7-0.7h9.1c0.4 0 0.7 0.3 0.7 0.7v0.3c0 0.4-0.3 0.7-0.7 0.7h-9.1c-0.4 0-0.7-0.3-0.7-0.7z"/><path class="h" d="m183.6 173c0-0.4 0.3-0.7 0.7-0.7h9.1c0.4 0 0.7 0.3 0.7 0.7v0.3c0 0.4-0.3 0.7-0.7 0.7h-9.1c-0.4 0-0.7-0.3-0.7-0.7z"/><path class="h" d="m199 173c0-0.4 0.3-0.7 0.7-0.7h9.1c0.4 0 0.7 0.3 0.7 0.7v0.3c0 0.4-0.3 0.7-0.7 0.7h-9.1c-0.4 0-0.7-0.3-0.7-0.7z"/><path class="h" d="m214.3 173c0-0.4 0.4-0.7 0.8-0.7h9.1c0.4 0 0.7 0.3 0.7 0.7v0.3c0 0.4-0.3 0.7-0.7 0.7h-9.1c-0.4 0-0.8-0.3-0.8-0.7z"/><path class="h" d="m229.7 173c0-0.4 0.3-0.7 0.7-0.7h9.1c0.4 0 0.8 0.3 0.8 0.7v0.3c0 0.4-0.4 0.7-0.8 0.7h-9.1c-0.4 0-0.7-0.3-0.7-0.7z"/><path class="h" d="m152.8 180c0-0.4 0.4-0.7 0.8-0.7h58c0.4 0 0.7 0.3 0.7 0.7v0.3c0 0.4-0.3 0.7-0.7 0.7h-58c-0.4 0-0.8-0.3-0.8-0.7z"/><path class="h" d="m258.2 156.3c0-0.6 0.4-1 1-1h71.2c0.5 0 1 0.4 1 1v0.4c0 0.5-0.5 1-1 1h-71.2c-0.6 0-1-0.5-1-1z"/><path class="h" d="m258.2 166.8c0-0.6 0.4-1 1-1h71.2c0.5 0 1 0.4 1 1v0.4c0 0.5-0.5 1-1 1h-71.2c-0.6 0-1-0.5-1-1z"/><path class="h" d="m258.2 176.6c0-0.5 0.4-1 1-1h71.2c0.5 0 1 0.5 1 1v0.4c0 0.6-0.5 1-1 1h-71.2c-0.6 0-1-0.4-1-1z"/><path class="h" d="m258.2 186.5c0-0.6 0.4-1 1-1h71.2c0.5 0 1 0.4 1 1v0.4c0 0.5-0.5 1-1 1h-71.2c-0.6 0-1-0.5-1-1z"/><path class="h" d="m258.2 196.3c0-0.5 0.4-1 1-1h71.2c0.5 0 1 0.5 1 1v0.4c0 0.6-0.5 1-1 1h-71.2c-0.6 0-1-0.4-1-1z"/><path class="h" d="m258.2 206.1c0-0.5 0.4-1 1-1h36.7c0.6 0 1 0.5 1 1v0.4c0 0.6-0.4 1-1 1h-36.7c-0.6 0-1-0.4-1-1z"/><path class="h" d="m281.9 212.8c0-0.5 0.5-1 1-1h36.8c0.6 0 1 0.5 1 1v0.4c0 0.6-0.4 1-1 1h-36.8c-0.5 0-1-0.4-1-1z"/><path class="h" d="m281.9 219.8c0-0.6 0.5-1 1-1h36.8c0.6 0 1 0.4 1 1v0.4c0 0.5-0.4 1-1 1h-36.8c-0.5 0-1-0.5-1-1z"/><path class="h" d="m161.5 219.8c0-0.6 0.4-1 1-1h17.3c0.6 0 1 0.4 1 1v0.4c0 0.5-0.4 1-1 1h-17.3c-0.6 0-1-0.5-1-1z"/><path class="h" d="m161.5 214c0-0.5 0.4-1 1-1h17.3c0.6 0 1 0.5 1 1v0.4c0 0.6-0.4 1-1 1h-17.3c-0.6 0-1-0.4-1-1z"/><path class="h" d="m161.5 208.3c0-0.5 0.4-1 1-1h17.3c0.6 0 1 0.5 1 1v0.4c0 0.6-0.4 1-1 1h-17.3c-0.6 0-1-0.4-1-1z"/><path class="h" d="m161.5 202.6c0-0.6 0.4-1 1-1h17.3c0.6 0 1 0.4 1 1v0.4c0 0.5-0.4 1-1 1h-17.3c-0.6 0-1-0.5-1-1z"/><g style="opacity:.2"><path class="f" d="m343 194.8v-21.1l-64 64h21.1z"/><path class="f" d="m232.9 237.7l110.1-110.1v-7.2h-49l-117.3 117.3z"/><path class="f" d="m144.8 171.4v47.4l98.4-98.4h-47.4z"/></g><path class="i" d="m233.6 175.1h22v16.6h-22z"/><path class="j" d="m233.6 188.1q2.6 1 5.4 1.5 2.8 0.5 5.6 0.5 2.8 0 5.6-0.5 2.8-0.5 5.4-1.5v4.8l-6 1.1-5 1-11-3.6z"/><path class="k" d="m207.9 284.2c0-4.8 3.9-8.7 8.7-8.7h55.9c4.8 0 8.6 3.9 8.6 8.7v13.5c0 4.8-3.8 8.6-8.6 8.6h-55.9c-4.8 0-8.7-3.8-8.7-8.6z"/><path class="l" d="m280.8 294.4c-37.8 11.1-72.6-0.1-72.6-0.1 0.4 1.7 1 3.3 1.9 4.8 0.9 1.4 2 2.7 3.3 3.8 1.4 1.1 2.9 2 4.5 2.5 1.6 0.6 3.3 0.9 5 0.9h43.3c1.7 0 3.4-0.3 5-0.8 1.6-0.6 3.1-1.5 4.4-2.5 1.3-1.1 2.5-2.4 3.3-3.9 0.9-1.4 1.6-3 1.9-4.7z"/><path class="k" d="m248.2 126l15.4-15.4q0.8 1.8 1.2 3.8 0.4 1.9 0.3 4-0.1 2-0.6 3.9-0.5 1.9-1.5 3.7l6.4-6.4c0 0 2.8 8.6-3 13.3l5.3-5.3c0 0 3.3 9.8-8.9 17.2z"/><path class="l" d="m260.8 142.2l4.8 0.6c0.1-0.4 1.3-13.8-14.1-20.2l-3.3 3.4z"/><path class="i" d="m263.1 165.5c-3.8 0-6.9-3-6.9-6.8 0-3.8 3.1-6.8 6.9-6.8 3.7 0 6.8 3 6.8 6.8 0 3.8-3.1 6.8-6.8 6.8z"/><path class="i" d="m226.3 165.5c-3.8 0-6.8-3-6.8-6.8 0-3.8 3-6.8 6.8-6.8 3.8 0 6.8 3 6.8 6.8 0 3.8-3 6.8-6.8 6.8z"/><path class="k" d="m223.4 143.5c0-9.8 7.9-17.8 17.8-17.8h6.8c9.9 0 17.8 8 17.8 17.8v23.6c0 9.8-7.9 17.8-17.8 17.8h-6.8c-9.9 0-17.8-8-17.8-17.8z"/><path class="k" d="m240.1 182.3v5.6l1.6-1.6 1.7 1.7 1.6-1.6 1.6 1.7v-5.8z"/><path class="k" d="m245.8 181.9l0.8 4.7 1.3-1.3 1.4 1.4 1.3-1.3 1.4 1.4v-4.8z"/><path class="k" d="m234.8 182v4.6l1.2-1.3 1.4 1.4 1.4-1.3 1.3 1.4 0.5-4.9z"/><path class="i" d="m195.1 234.1l-2.4 14.8h14v-16.6l-9.9-2.1"/><path class="m" d="m204.2 237.1h-9.6l0.5-3z"/><path class="n" d="m219.9 196.1c-10 4.9-18.9 6.4-30.2 36.2l17 5.7c0 0 11.3-27.9 13.2-41.9z"/><path class="i" d="m292.9 234.1l2.4 14.8h-14v-16.6l9.9-2.1"/><path class="m" d="m283.9 237.1h9.5l-0.5-3z"/><path class="n" d="m268.2 196.1c10 4.9 18.9 6.4 30.1 36.2l-17 5.7c0 0-11.2-27.9-13.1-41.9z"/><path class="d" d="m249.5 294.3h-11c-18.7 0-30.4-8.9-30.4-29.5l-3.7-40.2c0.1-4.5 0.9-8.9 2.7-13.1 1.7-4.1 4.2-7.8 7.3-11 3.2-3.2 7-5.7 11.1-7.4 4.1-1.7 8.5-2.6 13-2.6h11c4.5 0 8.9 0.9 13 2.6 4.1 1.7 7.9 4.2 11.1 7.4 3.1 3.2 5.6 6.9 7.3 11 1.8 4.2 2.6 8.6 2.7 13.1l-5.9 37.8c0 23.8-9.5 31.9-28.2 31.9z"/><path class="o" d="m271.8 198.9c-21.8 3.5-50.8 0.5-55.6 0q-1.9 1.6-3.5 3.5-1.6 1.8-2.9 3.9-1.3 2.1-2.3 4.3-1 2.2-1.7 4.6l3.4 0.4 13.8 1.9 17.6 2.8 16.3 1 18.8-2.1 6-5.7q-0.8-2.1-1.7-4.1-1-2-2.3-3.8-1.2-1.9-2.7-3.5-1.5-1.7-3.2-3.2z"/><path class="d" d="m218.5 397.4c0 3 4.2 2.6 9.5 2.6 5.2 0 9.5 0.4 9.5-2.6 0-3-4.3-5.5-9.5-5.5-5.3 0-9.5 2.4-9.5 5.5z"/><path class="k" d="m212.4 306.3l15.4 89.6q1.2 0.4 2.4 0.6 1.2 0.2 2.4 0.2 1.2 0 2.5-0.2 1.2-0.2 2.3-0.6v-68z"/><path class="l" d="m237.4 329.4l-0.8-1.5-0.9-0.1-20.3-2.1 3 15.8c2.5 0.1 13.8-5.1 18.9 7.9l0.2-0.9z"/><path class="d" d="m270.6 397.4c0 3-4.2 2.6-9.5 2.6-5.2 0-9.5 0.4-9.5-2.6 0-3 4.3-5.5 9.5-5.5 5.3 0 9.5 2.4 9.5 5.5z"/><path class="k" d="m276.7 306.3l-15.4 89.6q-1.2 0.4-2.4 0.6-1.2 0.2-2.4 0.2-1.2 0-2.5-0.2-1.2-0.2-2.3-0.6v-68z"/><path class="l" d="m251.7 329.4l0.8-1.5 0.9-0.1 20.3-2.1-3 15.8c-2.5 0.1-13.8-5.1-18.9 7.9l-0.2-0.9z"/><path class="p" d="m243.5 385.3c-0.8 0-1.4-0.6-1.4-1.4v-58.4c0-0.8 0.6-1.4 1.4-1.4h2.1c0.7 0 1.4 0.6 1.4 1.4v58.4c0 0.8-0.7 1.4-1.4 1.4z"/><path class="q" d="m243.2 322.4h4q1 0 2 0.4 1 0.4 1.8 1.2 0.7 0.7 1.1 1.7 0.4 1 0.4 2.1v17.6q0 1.3-0.5 2.5-0.5 1.3-1.4 2.2-1 1-2.2 1.5-1.2 0.5-2.6 0.5h-2.6q-1.3 0-2.5-0.5-1.3-0.5-2.2-1.5-0.9-0.9-1.5-2.2-0.5-1.2-0.5-2.5v-16.3q0-1.3 0.5-2.6 0.6-1.2 1.5-2.1 0.9-1 2.2-1.5 1.2-0.5 2.5-0.5z"/><path class="r" d="m252.5 330.6q-1.9-0.8-3.9-1.2-2-0.5-4-0.5-2.1 0-4.1 0.5-2 0.4-3.9 1.2v-5.7q1.9-0.8 3.9-1.2 2-0.5 4.1-0.5 2 0 4 0.5 2 0.4 3.9 1.2z"/><path class="d" d="m207.9 307.5h-10.2c-6.4 0-12.5-2.5-17.1-7-4.6-4.5-7.3-10.6-7.4-17-0.2-6.4 2.1-12.6 6.5-17.3 4.3-4.7 10.3-7.5 16.7-7.9q0.1 0 0.1 0 0.1 0 0.1 0 0.1 0 0.1 0 0.1 0 0.1 0h0.9c0.8 0 1.5 0.3 2 0.8 0.5 0.5 0.8 1.2 0.8 1.9 0 0.7-0.3 1.4-0.8 2-0.5 0.5-1.2 0.8-2 0.8-5 0-9.9 2-13.5 5.6-3.6 3.5-5.6 8.4-5.6 13.5 0 5 2 9.9 5.6 13.5 3.6 3.6 8.5 5.6 13.5 5.6h10.2c0.7 0 1.4 0.3 1.9 0.8 0.5 0.5 0.8 1.2 0.8 1.9 0 0.7-0.3 1.4-0.8 2-0.5 0.5-1.2 0.8-1.9 0.8z"/><path class="s" d="m186.9 259.4c0-2.1 1.7-3.9 3.8-3.9h10.4c2.1 0 3.8 1.8 3.8 3.9v1.5c0 2.1-1.7 3.8-3.8 3.8h-10.4c-2.1 0-3.8-1.7-3.8-3.8z"/><path class="d" d="m191.5 256.1h8.8q0.9 0 1.7 0.3 0.8 0.3 1.5 0.9 0.6 0.6 1 1.4 0.3 0.8 0.4 1.7 0-0.1 0-0.3 0-0.9-0.4-1.7-0.3-0.9-0.9-1.5-0.7-0.6-1.5-1-0.9-0.3-1.8-0.4h-8.8q-0.9 0.1-1.8 0.4-0.8 0.4-1.5 1-0.6 0.6-1 1.5-0.3 0.8-0.3 1.7 0 0.2 0 0.3 0.1-0.9 0.4-1.7 0.4-0.8 1-1.4 0.7-0.6 1.5-0.9 0.8-0.3 1.7-0.3z"/><path class="d" d="m280 307.5h10.2c6.4 0 12.5-2.5 17.1-7 4.6-4.5 7.2-10.6 7.4-17 0.2-6.4-2.1-12.6-6.5-17.3-4.3-4.7-10.3-7.5-16.7-7.9q-0.1 0-0.1 0-0.1 0-0.1 0-0.1 0-0.1 0-0.1 0-0.2 0h-0.8c-0.8 0-1.5 0.3-2 0.8-0.5 0.5-0.8 1.2-0.8 1.9 0 0.7 0.3 1.4 0.8 2 0.5 0.5 1.2 0.8 2 0.8 5 0 9.9 2 13.5 5.6 3.5 3.5 5.6 8.4 5.6 13.5 0 5-2.1 9.9-5.6 13.5-3.6 3.6-8.5 5.6-13.5 5.6h-10.2c-0.7 0-1.4 0.3-1.9 0.8-0.6 0.5-0.9 1.2-0.9 1.9 0 0.7 0.3 1.4 0.9 2 0.5 0.5 1.2 0.8 1.9 0.8z"/><path class="s" d="m283 259.4c0-2.1 1.7-3.9 3.8-3.9h10.4c2.1 0 3.8 1.8 3.8 3.9v1.5c0 2.1-1.7 3.8-3.8 3.8h-10.4c-2.1 0-3.8-1.7-3.8-3.8z"/><path class="d" d="m296.4 256.1h-8.8q-0.9 0-1.7 0.3-0.8 0.3-1.5 0.9-0.6 0.6-1 1.4-0.3 0.8-0.4 1.7 0-0.1 0-0.3 0-0.9 0.3-1.7 0.4-0.9 1-1.5 0.7-0.6 1.5-1 0.9-0.3 1.8-0.4h8.8q0.9 0.1 1.8 0.4 0.8 0.4 1.4 1 0.7 0.6 1 1.5 0.4 0.8 0.4 1.7 0 0.2 0 0.3-0.1-0.9-0.5-1.7-0.3-0.8-1-1.4-0.6-0.6-1.4-0.9-0.8-0.3-1.7-0.3z"/><path class="s" d="m204.9 299.7h79.3c2.9 0 5.7 1.2 7.7 3.3 2.1 2 3.2 4.8 3.2 7.7 0 2.9-1.1 5.7-3.2 7.8-2 2.1-4.8 3.2-7.7 3.3h-79.3c-3 0-5.8-1.2-7.9-3.2-2.1-2.1-3.3-4.9-3.3-7.9 0-2.9 1.2-5.7 3.3-7.8 2.1-2.1 4.9-3.2 7.9-3.2z"/><path class="d" d="m204.8 300.8h79.4c1.4 0 2.8 0.2 4.1 0.8 1.3 0.5 2.5 1.2 3.5 2.2 1 1 1.8 2.1 2.4 3.4 0.6 1.3 0.9 2.7 1 4.1q0-0.3 0-0.6c0-1.4-0.3-2.8-0.8-4.2-0.6-1.3-1.4-2.5-2.4-3.5-1-1.1-2.2-1.9-3.6-2.4-1.3-0.6-2.7-0.9-4.2-0.9h-79.4c-1.4 0-2.8 0.3-4.2 0.9-1.3 0.5-2.5 1.3-3.5 2.4-1.1 1-1.9 2.2-2.4 3.5-0.6 1.4-0.9 2.8-0.9 4.2q0 0.3 0.1 0.6c0-1.4 0.4-2.8 0.9-4.1 0.6-1.3 1.4-2.4 2.5-3.4 1-1 2.2-1.7 3.5-2.2 1.3-0.6 2.7-0.8 4-0.8z"/><path class="s" d="m258 289.9h-28.7c-2.7-0.1-5.4-0.6-7.9-1.6-2.5-1.1-4.8-2.6-6.7-4.6-2-1.9-3.5-4.2-4.5-6.7-1.1-2.5-1.6-5.2-1.6-7.9l-5.2-45c0-2.7 0.5-5.4 1.6-8 1-2.5 2.5-4.8 4.5-6.7 1.9-1.9 4.2-3.5 6.7-4.5 2.5-1.1 5.2-1.6 8-1.6h40.7c2.7 0 5.4 0.5 8 1.6 2.5 1 4.8 2.6 6.7 4.5 1.9 1.9 3.5 4.2 4.5 6.7 1 2.6 1.6 5.3 1.6 8l-6.9 45c0 2.7-0.6 5.4-1.6 7.9-1.1 2.5-2.6 4.8-4.5 6.8-2 1.9-4.3 3.4-6.8 4.5-2.5 1-5.2 1.5-7.9 1.6z"/><path class="t" d="m224.2 204.2h40.7c2.7 0 5.3 0.5 7.8 1.5 2.5 1 4.7 2.5 6.7 4.4 1.9 1.8 3.4 4 4.5 6.5 1.1 2.4 1.7 5.1 1.8 7.7v-0.2c0-2.7-0.6-5.4-1.6-8-1-2.5-2.6-4.8-4.5-6.7-1.9-1.9-4.2-3.5-6.7-4.5-2.6-1.1-5.3-1.6-8-1.6h-40.7c-2.8 0-5.5 0.5-8 1.6-2.5 1-4.8 2.6-6.7 4.5-2 1.9-3.5 4.2-4.5 6.7-1.1 2.6-1.6 5.3-1.6 8v0.3c0.1-2.7 0.7-5.3 1.7-7.8 1.1-2.4 2.7-4.6 4.6-6.5 1.9-1.9 4.2-3.4 6.6-4.4 2.5-1 5.2-1.5 7.9-1.5z"/><path class="d" d="m204.6 320.3c0-2.3 1.9-4.1 4.1-4.1h71.6c2.3 0 4.1 1.8 4.1 4.1v1.5c0 2.3-1.8 4.1-4.1 4.1h-71.6c-2.2 0-4.1-1.8-4.1-4.1z"/><path class="d" d="m223.3 328.6c0-1.6 1.3-2.9 2.8-2.9h36.8c1.6 0 2.9 1.3 2.9 2.9v4.1c0 1.5-1.3 2.8-2.9 2.8h-36.8c-1.5 0-2.8-1.3-2.8-2.8z"/><path class="u" d="m209.5 316.5h70q1 0 1.9 0.3 0.8 0.4 1.5 1.1 0.7 0.6 1.1 1.5 0.4 0.9 0.4 1.8 0-0.1 0-0.2 0-0.9-0.4-1.8-0.3-0.9-1-1.6-0.7-0.7-1.6-1.1-0.9-0.3-1.9-0.3h-70q-0.9 0-1.8 0.3-0.9 0.4-1.6 1.1-0.7 0.7-1.1 1.6-0.3 0.9-0.4 1.8 0.1 0.1 0.1 0.2 0-0.9 0.4-1.8 0.4-0.9 1-1.5 0.7-0.7 1.6-1.1 0.9-0.3 1.8-0.3z"/><path class="p" d="m211.3 325.7c0-1.1 0.9-2 2.1-2h62.3c1.1 0 2 0.9 2 2v0.8c0 1.1-0.9 2.1-2 2.1h-62.3c-1.2 0-2.1-1-2.1-2.1z"/><path class="v" d="m213.8 323.8h61.5q0.5 0 0.9 0.2 0.4 0.2 0.8 0.5 0.3 0.4 0.5 0.8 0.2 0.4 0.2 0.9 0 0 0-0.1 0-0.5-0.1-0.9-0.2-0.5-0.6-0.8-0.3-0.3-0.8-0.5-0.4-0.2-0.9-0.2h-61.5q-0.5 0-1 0.2-0.4 0.2-0.8 0.5-0.3 0.3-0.5 0.8-0.2 0.4-0.2 0.9 0 0.1 0 0.1 0-0.5 0.2-0.9 0.2-0.4 0.6-0.8 0.3-0.3 0.8-0.5 0.4-0.2 0.9-0.2z"/><path class="q" d="m240.1 389.1v-7.6q0-0.9 0.3-1.7 0.4-0.8 1-1.4 0.6-0.7 1.4-1 0.9-0.3 1.7-0.3 0.9 0 1.7 0.3 0.8 0.3 1.5 1 0.6 0.6 0.9 1.4 0.4 0.8 0.4 1.7v7.6"/><path class="p" d="m211.3 397.3c-0.4 0-0.7-0.1-1.1-0.4-0.3-0.2-0.5-0.6-0.6-1 0-0.3 0-0.7 0.2-1.1 0.2-0.4 0.5-0.6 0.8-0.8 5.5-2.5 11.2-4.3 17-5.6 5.9-1.3 11.8-1.9 17.8-1.9 6 0 12 0.6 17.8 1.9 5.9 1.3 11.6 3.1 17 5.6 0.4 0.2 0.8 0.5 0.9 1 0.2 0.4 0.2 0.9 0 1.3-0.2 0.4-0.5 0.7-1 0.9-0.4 0.2-0.9 0.2-1.3 0-5.2-2.4-10.7-4.2-16.3-5.4-5.6-1.2-11.3-1.8-17.1-1.8-5.7 0-11.4 0.6-17 1.8-5.7 1.2-11.1 3-16.4 5.4q0 0-0.1 0-0.1 0.1-0.2 0.1-0.1 0-0.2 0-0.1 0-0.2 0z"/><path class="d" d="m237.2 387c0-1 0.8-1.7 1.7-1.7h12c0.9 0 1.6 0.7 1.6 1.7v2.4c0 0.9-0.7 1.6-1.6 1.6h-12c-0.9 0-1.7-0.7-1.7-1.6z"/><path class="p" d="m243.7 389.2c0-0.6 0.4-1 1-1h0.4c0.5 0 1 0.4 1 1v13.3c0 0.6-0.5 1-1 1h-0.4c-0.6 0-1-0.4-1-1z"/><path class="d" d="m244.9 398.5q0.6 0 1.2 0.3 0.7 0.2 1.1 0.7 0.5 0.5 0.7 1.1 0.3 0.6 0.3 1.2v6.3c0 0.9-0.4 1.7-1 2.3-0.6 0.6-1.5 0.9-2.3 0.9-0.9 0-1.7-0.3-2.3-0.9-0.7-0.6-1-1.4-1-2.3v-6.3q0-0.6 0.2-1.2 0.3-0.6 0.7-1.1 0.5-0.5 1.1-0.7 0.6-0.3 1.3-0.3z"/><path class="d" d="m282.5 405.5c-3.4 0-6.2-2.8-6.2-6.2 0-3.5 2.8-6.3 6.2-6.3 3.5 0 6.2 2.8 6.2 6.3 0 3.4-2.7 6.2-6.2 6.2z"/><path class="d" d="m282.5 393.2q1.2 0 2.4 0.4 1.1 0.5 2 1.4 0.9 0.8 1.3 2 0.5 1.1 0.5 2.3 0 0 0 0c0-1.7-0.6-3.3-1.8-4.5-1.2-1.1-2.7-1.8-4.4-1.8-1.7 0-3.2 0.7-4.4 1.8-1.2 1.2-1.8 2.8-1.8 4.5q0 0 0 0 0-1.2 0.5-2.3 0.4-1.2 1.3-2 0.9-0.9 2-1.4 1.2-0.4 2.4-0.4z"/><path class="w" d="m282.5 403c-2.1 0-3.7-1.7-3.7-3.7 0-2.1 1.6-3.8 3.7-3.8 2.1 0 3.7 1.7 3.7 3.8 0 2-1.6 3.7-3.7 3.7z"/><path class="p" d="m282.5 400.8c-0.8 0-1.5-0.7-1.5-1.5 0-0.9 0.7-1.5 1.5-1.5 0.8 0 1.5 0.6 1.5 1.5 0 0.8-0.7 1.5-1.5 1.5z"/><path class="x" d="m282.5 397.8q0.3 0 0.6 0.2 0.2 0.1 0.4 0.3 0.2 0.2 0.4 0.4 0.1 0.3 0.1 0.6 0 0 0 0c0-0.4-0.2-0.8-0.4-1.1-0.3-0.3-0.7-0.4-1.1-0.4-0.4 0-0.8 0.1-1.1 0.4-0.2 0.3-0.4 0.7-0.4 1.1q0 0 0 0 0-0.3 0.1-0.6 0.2-0.2 0.4-0.4 0.2-0.2 0.4-0.3 0.3-0.2 0.6-0.2z"/><path class="d" d="m209.6 405.5c-3.4 0-6.2-2.8-6.2-6.2 0-3.5 2.8-6.3 6.2-6.3 3.5 0 6.2 2.8 6.2 6.3 0 3.4-2.7 6.2-6.2 6.2z"/><path class="p" d="m209.6 393.2q1.2 0 2.4 0.4 1.1 0.5 2 1.4 0.9 0.8 1.3 2 0.5 1.1 0.5 2.3 0 0 0 0c0-1.7-0.6-3.3-1.8-4.5-1.2-1.1-2.7-1.8-4.4-1.8-1.7 0-3.2 0.7-4.4 1.8-1.2 1.2-1.8 2.8-1.8 4.5q0 0 0 0 0-1.2 0.5-2.3 0.4-1.2 1.3-2 0.9-0.9 2-1.4 1.2-0.4 2.4-0.4z"/><path class="w" d="m209.6 403c-2.1 0-3.7-1.7-3.7-3.7 0-2.1 1.6-3.8 3.7-3.8 2.1 0 3.7 1.7 3.7 3.8 0 2-1.6 3.7-3.7 3.7z"/><path class="p" d="m209.6 400.8c-0.8 0-1.5-0.7-1.5-1.5 0-0.9 0.7-1.5 1.5-1.5 0.8 0 1.5 0.6 1.5 1.5 0 0.8-0.7 1.5-1.5 1.5z"/><path class="x" d="m209.6 397.8q0.3 0 0.6 0.2 0.2 0.1 0.4 0.3 0.2 0.2 0.4 0.4 0.1 0.3 0.1 0.6 0 0 0 0c0-0.4-0.2-0.8-0.5-1.1-0.2-0.2-0.6-0.4-1-0.4-0.4 0-0.8 0.2-1 0.4-0.3 0.3-0.5 0.7-0.5 1.1q0 0 0 0 0-0.3 0.1-0.6 0.2-0.2 0.4-0.4 0.2-0.2 0.4-0.3 0.3-0.2 0.6-0.2z"/><path class="d" d="m223.3 240.4c0-4.7 3.8-8.5 8.5-8.5h25.4c4.7 0 8.6 3.8 8.6 8.5v3.3c0 4.7-3.9 8.5-8.6 8.5h-25.4c-4.7 0-8.5-3.8-8.5-8.5z"/><path class="y" d="m255.6 231.9h-22.1c-1.4 0-2.7 0.2-3.9 0.8-1.2 0.5-2.4 1.2-3.3 2.2-1 0.9-1.7 2-2.2 3.3-0.5 1.2-0.8 2.5-0.8 3.9q0 0 0 0.1c0-1.3 0.3-2.6 0.8-3.8 0.6-1.2 1.3-2.3 2.3-3.3 0.9-0.9 2-1.6 3.2-2.1 1.3-0.5 2.6-0.8 3.9-0.8h22.1c1.3 0 2.6 0.3 3.8 0.8 1.3 0.5 2.4 1.2 3.3 2.1 0.9 1 1.7 2.1 2.2 3.3 0.5 1.2 0.8 2.5 0.9 3.8q0-0.1 0-0.1c0-1.4-0.3-2.7-0.8-3.9-0.5-1.3-1.3-2.4-2.2-3.3-1-1-2.1-1.7-3.3-2.2-1.3-0.6-2.6-0.8-3.9-0.8z"/><path class="z" d="m239.7 242.4c0-1.6 1.2-2.8 2.8-2.8h4.1c1.5 0 2.8 1.2 2.8 2.8v75.9c0 1.5-1.3 2.7-2.8 2.7h-4.1c-1.6 0-2.8-1.2-2.8-2.7z"/><path class="A" d="m240.7 245.2c0-0.3 0.3-0.5 0.6-0.5h6.5c0.3 0 0.5 0.2 0.5 0.5v1c0 0.3-0.2 0.6-0.5 0.6h-6.5c-0.3 0-0.6-0.3-0.6-0.6z"/><path class="B" d="m240.7 245.2c0-0.3 0.3-0.5 0.6-0.5h6.5c0.3 0 0.5 0.2 0.5 0.5v0.9c0 0.3-0.2 0.5-0.5 0.5h-6.5c-0.3 0-0.6-0.2-0.6-0.5z"/><path class="A" d="m240.7 251c0-0.3 0.3-0.6 0.6-0.6h6.5c0.3 0 0.5 0.3 0.5 0.6v0.9c0 0.4-0.2 0.6-0.5 0.6h-6.5c-0.3 0-0.6-0.2-0.6-0.6z"/><path class="B" d="m240.7 251c0-0.3 0.3-0.6 0.6-0.6h6.5c0.3 0 0.5 0.3 0.5 0.6v0.8c0 0.4-0.2 0.6-0.5 0.6h-6.5c-0.3 0-0.6-0.2-0.6-0.6z"/><path class="A" d="m240.7 256.5c0-0.3 0.3-0.6 0.6-0.6h6.5c0.3 0 0.5 0.3 0.5 0.6v0.9c0 0.4-0.2 0.6-0.5 0.6h-6.5c-0.3 0-0.6-0.2-0.6-0.6z"/><path class="B" d="m240.7 256.5c0-0.3 0.3-0.6 0.6-0.6h6.5c0.3 0 0.5 0.3 0.5 0.6v0.8c0 0.3-0.2 0.6-0.5 0.6h-6.5c-0.3 0-0.6-0.3-0.6-0.6z"/><path class="A" d="m240.7 262c0-0.3 0.3-0.6 0.6-0.6h6.5c0.3 0 0.5 0.3 0.5 0.6v0.9c0 0.3-0.2 0.6-0.5 0.6h-6.5c-0.3 0-0.6-0.3-0.6-0.6z"/><path class="B" d="m240.7 262c0-0.3 0.3-0.6 0.6-0.6h6.5c0.3 0 0.5 0.3 0.5 0.6v0.8c0 0.3-0.2 0.6-0.5 0.6h-6.5c-0.3 0-0.6-0.3-0.6-0.6z"/><path class="A" d="m240.7 267.5c0-0.4 0.3-0.6 0.6-0.6h6.5c0.3 0 0.5 0.2 0.5 0.6v0.9c0 0.3-0.2 0.6-0.5 0.6h-6.5c-0.3 0-0.6-0.3-0.6-0.6z"/><path class="B" d="m240.7 267.5c0-0.4 0.3-0.6 0.6-0.6h6.5c0.3 0 0.5 0.2 0.5 0.6v0.8c0 0.3-0.2 0.6-0.5 0.6h-6.5c-0.3 0-0.6-0.3-0.6-0.6z"/><path class="A" d="m240.7 272.9c0-0.3 0.3-0.5 0.6-0.5h6.5c0.3 0 0.5 0.2 0.5 0.5v1c0 0.3-0.2 0.6-0.5 0.6h-6.5c-0.3 0-0.6-0.3-0.6-0.6z"/><path class="B" d="m240.7 272.9c0-0.3 0.3-0.5 0.6-0.5h6.5c0.3 0 0.5 0.2 0.5 0.5v0.9c0 0.3-0.2 0.6-0.5 0.6h-6.5c-0.3 0-0.6-0.3-0.6-0.6z"/><path class="A" d="m240.7 278.4c0-0.3 0.3-0.5 0.6-0.5h6.5c0.3 0 0.5 0.2 0.5 0.5v1c0 0.3-0.2 0.6-0.5 0.6h-6.5c-0.3 0-0.6-0.3-0.6-0.6z"/><path class="B" d="m240.7 278.4c0-0.3 0.3-0.5 0.6-0.5h6.5c0.3 0 0.5 0.2 0.5 0.5v0.9c0 0.3-0.2 0.5-0.5 0.5h-6.5c-0.3 0-0.6-0.2-0.6-0.5z"/><path class="A" d="m240.7 283.9c0-0.3 0.3-0.6 0.6-0.6h6.5c0.3 0 0.5 0.3 0.5 0.6v1c0 0.3-0.2 0.5-0.5 0.5h-6.5c-0.3 0-0.6-0.2-0.6-0.5z"/><path class="B" d="m240.7 283.9c0-0.3 0.3-0.6 0.6-0.6h6.5c0.3 0 0.5 0.3 0.5 0.6v0.9c0 0.3-0.2 0.5-0.5 0.5h-6.5c-0.3 0-0.6-0.2-0.6-0.5z"/><path class="A" d="m240.7 289.4c0-0.3 0.3-0.6 0.6-0.6h6.5c0.3 0 0.5 0.3 0.5 0.6v0.9c0 0.4-0.2 0.6-0.5 0.6h-6.5c-0.3 0-0.6-0.2-0.6-0.6z"/><path class="B" d="m240.7 289.4c0-0.3 0.3-0.6 0.6-0.6h6.5c0.3 0 0.5 0.3 0.5 0.6v0.8c0 0.4-0.2 0.6-0.5 0.6h-6.5c-0.3 0-0.6-0.2-0.6-0.6z"/><path class="A" d="m240.7 294.9c0-0.3 0.3-0.6 0.6-0.6h6.5c0.3 0 0.5 0.3 0.5 0.6v0.9c0 0.4-0.2 0.6-0.5 0.6h-6.5c-0.3 0-0.6-0.2-0.6-0.6z"/><path class="B" d="m240.7 294.9c0-0.3 0.3-0.6 0.6-0.6h6.5c0.3 0 0.5 0.3 0.5 0.6v0.8c0 0.3-0.2 0.6-0.5 0.6h-6.5c-0.3 0-0.6-0.3-0.6-0.6z"/><path class="A" d="m240.7 300.4c0-0.3 0.3-0.6 0.6-0.6h6.5c0.3 0 0.5 0.3 0.5 0.6v0.9c0 0.3-0.2 0.6-0.5 0.6h-6.5c-0.3 0-0.6-0.3-0.6-0.6z"/><path class="B" d="m240.7 300.4c0-0.3 0.3-0.6 0.6-0.6h6.5c0.3 0 0.5 0.3 0.5 0.6v0.8c0 0.3-0.2 0.6-0.5 0.6h-6.5c-0.3 0-0.6-0.3-0.6-0.6z"/><path class="A" d="m240.7 305.9c0-0.4 0.3-0.6 0.6-0.6h6.5c0.3 0 0.5 0.2 0.5 0.6v0.9c0 0.3-0.2 0.6-0.5 0.6h-6.5c-0.3 0-0.6-0.3-0.6-0.6z"/><path class="B" d="m240.7 305.9c0-0.4 0.3-0.6 0.6-0.6h6.5c0.3 0 0.5 0.2 0.5 0.6v0.8c0 0.3-0.2 0.6-0.5 0.6h-6.5c-0.3 0-0.6-0.3-0.6-0.6z"/><path class="A" d="m240.7 311.3c0-0.3 0.3-0.5 0.6-0.5h6.5c0.3 0 0.5 0.2 0.5 0.5v1c0 0.3-0.2 0.6-0.5 0.6h-6.5c-0.3 0-0.6-0.3-0.6-0.6z"/><path class="B" d="m240.7 311.3c0-0.3 0.3-0.5 0.6-0.5h6.5c0.3 0 0.5 0.2 0.5 0.5v0.9c0 0.3-0.2 0.6-0.5 0.6h-6.5c-0.3 0-0.6-0.3-0.6-0.6z"/><path fill-rule="evenodd" class="C" d="m337 256.9c-2.4 0-4.6-1.5-5.5-3.7-0.9-2.2-0.4-4.8 1.3-6.5 1.7-1.7 4.2-2.2 6.5-1.3 2.2 0.9 3.6 3.1 3.6 5.5q0 1.2-0.4 2.3-0.5 1.1-1.3 1.9-0.8 0.9-1.9 1.3-1.1 0.5-2.3 0.5zm0-10.2c-1.7 0-3.2 1-3.9 2.6-0.6 1.6-0.3 3.4 0.9 4.6 1.2 1.2 3 1.5 4.6 0.9 1.6-0.7 2.6-2.2 2.6-3.9q0-0.8-0.3-1.6-0.4-0.8-1-1.3-0.5-0.6-1.3-1-0.8-0.3-1.6-0.3z"/><path class="D" d="m336.9 242.5v12c0 1.2-0.3 2.5-0.8 3.7-0.5 1.1-1.2 2.2-2.1 3.1-0.9 0.9-1.9 1.6-3.1 2.1-1.2 0.5-2.4 0.7-3.7 0.7-1.3 0-2.5-0.2-3.7-0.7-1.2-0.5-2.2-1.2-3.1-2.1-0.9-0.9-1.6-2-2.1-3.1-0.5-1.2-0.7-2.5-0.7-3.7v-12z"/><path class="C" d="m317.4 263.7c0-0.5 0.4-0.9 0.9-0.9h17.8c0.5 0 0.9 0.4 0.9 0.9v0.8c0 0.5-0.4 0.9-0.9 0.9h-17.8c-0.5 0-0.9-0.4-0.9-0.9z"/><path fill-rule="evenodd" class="E" d="m199.8 77.2h-127.8l-0.1-0.6c-0.6-2.8-0.3-5.7 0.8-8.4 1.1-2.7 3-4.9 5.5-6.5 2.4-1.6 5.2-2.4 8.1-2.3 2.9 0.1 5.7 1 8.1 2.7 1.5-7.8 5.6-14.8 11.5-20.1 5.9-5.3 13.4-8.4 21.3-9.1 7.9-0.6 15.8 1.3 22.5 5.6 6.7 4.2 11.9 10.5 14.7 17.9 3.3-3 7.5-4.9 12.1-5.4 4.5-0.5 9 0.4 13 2.6 3.9 2.3 7 5.7 8.9 9.8 1.9 4.2 2.4 8.8 1.5 13.2zm-126.6-1.4h125.4c0.8-4.2 0.1-8.5-1.8-12.4-1.9-3.8-5-6.9-8.8-8.9-3.8-1.9-8.1-2.6-12.3-1.9-4.2 0.6-8.1 2.6-11.1 5.7l-0.8 0.8-0.4-1.1c-2.5-7.4-7.5-13.7-14-18-6.5-4.3-14.3-6.3-22.1-5.6-7.8 0.6-15.1 3.8-20.9 9.1-5.7 5.3-9.5 12.4-10.8 20.1l-0.2 1.2-1-0.8c-1.9-1.6-4.2-2.7-6.6-3-2.5-0.4-5 0-7.2 1-2.3 1.1-4.2 2.7-5.5 4.8-1.3 2.1-2 4.5-2 7q0 0.2 0 0.5 0 0.2 0 0.5 0 0.3 0.1 0.5 0 0.3 0 0.5z"/><path fill-rule="evenodd" class="E" d="m137.3 70.4h-11.6q-0.5 0-1.1-0.2-0.5-0.2-0.9-0.6-0.3-0.4-0.6-0.9-0.2-0.5-0.2-1v-7.1h-3c-0.5 0-1-0.2-1.4-0.4-0.4-0.3-0.8-0.7-1-1.2-0.2-0.4-0.2-0.9-0.1-1.4 0.1-0.5 0.3-1 0.7-1.3l11.6-11.6q0.4-0.4 0.8-0.6 0.5-0.2 1-0.2 0.5 0 1 0.2 0.4 0.2 0.8 0.6l11.6 11.6c0.4 0.3 0.6 0.8 0.7 1.3 0.1 0.5 0 1-0.2 1.4-0.1 0.5-0.5 0.9-0.9 1.2-0.4 0.2-0.9 0.4-1.4 0.4h-3.1v7.1q0 0.5-0.2 1-0.2 0.5-0.6 0.9-0.4 0.4-0.9 0.6-0.5 0.2-1 0.2zm-5.8-25.1q-0.1 0-0.2 0.1-0.1 0-0.2 0-0.1 0.1-0.2 0.1-0.1 0.1-0.2 0.2l-11.6 11.6q-0.2 0.2-0.3 0.5-0.1 0.4 0.1 0.7 0.1 0.3 0.4 0.5 0.3 0.1 0.6 0.2h4.5v8.5q0 0.2 0.1 0.5 0.1 0.2 0.3 0.4 0.2 0.2 0.4 0.3 0.2 0.1 0.5 0.1h11.6q0.3 0 0.5-0.1 0.2-0.1 0.4-0.3 0.2-0.2 0.3-0.4 0.1-0.3 0.1-0.5v-8.5h4.5q0.3-0.1 0.6-0.2 0.3-0.2 0.4-0.5 0.1-0.3 0.1-0.7-0.1-0.3-0.3-0.5l-11.6-11.6q-0.1-0.1-0.2-0.2-0.1 0-0.2-0.1-0.1 0-0.2 0-0.1-0.1-0.2-0.1z"/><path fill-rule="evenodd" class="E" d="m315.2 24.2h-52.3l-0.1-0.2q0-0.2 0-0.3-0.1-0.2-0.1-0.3 0-0.2 0-0.3 0-0.2 0-0.3c0-1.1 0.3-2.2 0.9-3.1 0.5-0.9 1.3-1.7 2.3-2.1 1-0.5 2-0.8 3.1-0.7 1.1 0.1 2.1 0.5 3 1.1 0.7-3.2 2.3-6.1 4.8-8.2 2.4-2.2 5.5-3.5 8.7-3.8 3.2-0.2 6.5 0.6 9.2 2.3 2.8 1.8 4.9 4.4 6 7.4 1.4-1.3 3.1-2 5-2.2 1.8-0.2 3.7 0.1 5.3 1.1 1.6 0.9 2.9 2.3 3.7 4 0.7 1.7 1 3.6 0.6 5.4zm-51.9-0.6h51.4q0-0.2 0.1-0.4 0-0.1 0-0.3 0-0.2 0-0.4 0-0.2 0-0.3c0-1.7-0.5-3.3-1.4-4.6-0.9-1.4-2.2-2.4-3.7-3-1.5-0.7-3.1-0.8-4.7-0.5-1.6 0.3-3.1 1.1-4.2 2.3l-0.4 0.3-0.1-0.4c-1.1-3-3.1-5.6-5.8-7.4-2.6-1.8-5.8-2.6-9-2.3-3.2 0.3-6.2 1.6-8.6 3.7-2.3 2.2-3.9 5.1-4.4 8.3l-0.1 0.5-0.4-0.4c-0.8-0.7-1.9-1.1-2.9-1.2-1.1-0.1-2.2 0.1-3.1 0.6-1 0.6-1.8 1.4-2.2 2.3-0.5 1-0.7 2.1-0.5 3.2z"/><path fill-rule="evenodd" class="E" d="m289.6 21.4h-4.7q-0.3 0-0.5-0.1-0.2 0-0.3-0.2-0.2-0.2-0.3-0.4-0.1-0.2-0.1-0.4v-2.9h-1.2q-0.3 0-0.6-0.2-0.2-0.2-0.4-0.4-0.1-0.3 0-0.6 0-0.3 0.3-0.6l4.7-4.7q0.2-0.2 0.4-0.3 0.1 0 0.3 0 0.3 0 0.4 0 0.2 0.1 0.4 0.3l4.7 4.7q0.3 0.2 0.3 0.6 0.1 0.3 0 0.6-0.2 0.2-0.4 0.4-0.3 0.2-0.6 0.2h-1.2v2.9q0 0.2-0.1 0.4-0.1 0.2-0.3 0.4-0.1 0.2-0.3 0.2-0.3 0.1-0.5 0.1zm-2.3-10.3q-0.1 0-0.1 0.1-0.1 0-0.1 0-0.1 0-0.1 0 0 0-0.1 0.1l-4.7 4.7q-0.1 0.1-0.2 0.3 0 0.1 0.1 0.2 0 0.2 0.1 0.2 0.2 0.1 0.3 0.1h1.8v3.5q0 0.1 0.1 0.2 0 0.1 0.1 0.2 0.1 0.1 0.2 0.1 0.1 0 0.2 0h4.7q0.1 0 0.2 0 0.1 0 0.2-0.1 0.1-0.1 0.1-0.2 0.1-0.1 0.1-0.2v-3.5h1.8q0.1 0 0.3-0.1 0.1 0 0.1-0.2 0.1-0.1 0.1-0.2-0.1-0.2-0.2-0.3l-4.7-4.7q-0.1 0-0.1-0.1 0 0-0.1 0 0 0-0.1 0 0-0.1 0-0.1z"/><path class="F" d="m42 64.9h178v0.9h-178z"/><path class="F" d="m42 64.9h178v101.1q0 1.5-0.6 2.8-0.6 1.4-1.6 2.5-1.1 1-2.4 1.6-1.4 0.6-2.9 0.6h-163q-1.5 0-2.9-0.6-1.3-0.6-2.4-1.6-1.1-1.1-1.6-2.5-0.6-1.3-0.6-2.8z"/><path class="F" d="m57.7 87.3h94.8v34.1h-94.8z"/><path class="F" d="m57.9 128.1h33.3v10.5h-33.3z"/><path class="F" d="m96.2 128.1h56.5v10.5h-56.5z"/><path class="F" d="m159 87.7h51.6v14.7h-51.6z"/><path class="F" d="m57.9 145h152.7v14.7h-152.7z"/><path class="F" d="m159 106.3h51.6v33.5h-51.6z"/><path class="F" d="m42 64.9h178v17.7h-178z"/><path class="G" d="m42 82.3h178v0.3h-178z"/><path class="g" d="m49.2 76.2c-1.7 0-3-1.3-3-2.9 0-1.6 1.3-2.9 3-2.9 1.6 0 2.9 1.3 2.9 2.9 0 1.6-1.3 2.9-2.9 2.9z"/><path class="g" d="m57.9 76.2c-1.6 0-2.9-1.3-2.9-2.9 0-1.6 1.3-2.9 2.9-2.9 1.6 0 2.9 1.3 2.9 2.9 0 1.6-1.3 2.9-2.9 2.9z"/><path class="g" d="m66.6 76.2c-1.6 0-2.9-1.3-2.9-2.9 0-1.6 1.3-2.9 2.9-2.9 1.6 0 2.9 1.3 2.9 2.9 0 1.6-1.3 2.9-2.9 2.9z"/><path class="F" d="m46.2 87.6c0-1.3 1.1-2.4 2.5-2.4h0.9c1.4 0 2.5 1.1 2.5 2.4v76.4c0 1.4-1.1 2.5-2.5 2.5h-0.9c-1.4 0-2.5-1.1-2.5-2.5z"/><path class="D" d="m47.8 88.7c0-0.6 0.4-1 1-1h0.3c0.6 0 1 0.4 1 1v19.4c0 0.5-0.4 0.9-1 0.9h-0.3c-0.6 0-1-0.4-1-0.9z"/><path class="H" d="m87.6 130.5h-11.1"/><path class="H" d="m86.6 135.4h-25.8"/><path class="H" d="m99.1 130.5h4.6"/><path class="H" d="m107.5 130.5h4.7"/><path class="H" d="m116 130.5h4.6"/><path class="H" d="m124.4 130.5h4.6"/><path class="H" d="m132.8 130.5h4.6"/><path class="H" d="m141.2 130.5h4.7"/><path class="H" d="m99.1 134.1h3"/><path class="H" d="m106 134.1h3"/><path class="H" d="m113 134.1h3"/><path class="H" d="m119.9 134.1h3"/><path class="H" d="m126.8 134.1h3"/><path class="H" d="m133.8 134.1h3"/><path class="H" d="m140.7 134.1h3"/><path class="H" d="m64.5 148.7l-3.3 3.3 3.1 3.2"/><path class="H" d="m67.7 148.7l-3.3 3.3 3.2 3.2"/><path class="H" d="m167.6 91.9l-3.3 3.2 3.2 3.2"/><path class="H" d="m162.7 110.1h25.9"/><path class="H" d="m162.7 113.3h10.2"/><path class="H" d="m162.7 118.3h10.2"/><path class="H" d="m162.7 123.3h10.2"/><path class="H" d="m162.7 128.3h10.2"/><path class="H" d="m203.2 116.3h-6.9"/><path class="H" d="m203.2 119.2h-6.9"/><path class="H" d="m203.2 122h-6.9"/><path class="H" d="m203.2 124.9h-6.9"/><path class="H" d="m203.2 127.7h-6.9"/><path class="H" d="m203.2 130.5h-6.9"/><path class="H" d="m203.2 133.4h-6.9"/><path class="H" d="m203.2 136.2h-6.9"/><path class="H" d="m75.9 148.7h70"/><path class="H" d="m75.9 152h42.4"/><path class="H" d="m75.9 156.5h42.4"/><path fill-rule="evenodd" class="I" d="m165.9 104.5l-3.5 39.8-15.9 4.4-15.8-4.4-3.5-39.8zm-7.1 8.1h-24.6l0.3 4.6h19l-0.4 4.9-18.1 0.2 0.5 4.7 17.2-0.1-0.7 6.8-5.5 1.5-5.5-1.5-0.3-4h-4.9l0.7 7.8 10 2.8 10-2.8 1.4-15 0.4-5z"/><path fill-rule="evenodd" class="I" d="m79.5 74.2q0-0.3 0.2-0.5 0.2-0.2 0.5-0.3 0.2-0.1 0.5-0.1h35.9q0.3 0 0.5 0.1 0.3 0.1 0.5 0.3 0.2 0.2 0.3 0.5 0.1 0.3 0 0.6l-2.8 36.6q0 0.2-0.1 0.4-0.1 0.2-0.2 0.3-0.1 0.2-0.3 0.3-0.2 0.1-0.4 0.2l-15 4.8q-0.1 0-0.2 0-0.1 0-0.2 0-0.1 0-0.2 0-0.2 0-0.2 0l-15.1-4.8q-0.2-0.1-0.4-0.2-0.1-0.1-0.3-0.3-0.1-0.1-0.2-0.3 0-0.2-0.1-0.4l-2.8-36.6q0-0.3 0.1-0.6zm31.5 7.2h-24.6l1.1 14.7h17.4l-0.4 6.1-5.7 1.5-5.7-1.5v-3.8h-5.4l0.6 7.7 10.4 3.3 10.3-3.3 1.2-14.8h-17.7l-0.6-5.2h18.7z"/><path class="F" d="m106.7 167.6h84.1v71.5q0 1.5-0.5 2.9-0.6 1.4-1.7 2.4-1 1.1-2.4 1.7-1.4 0.5-2.9 0.5h-69.1q-1.5 0-2.9-0.5-1.4-0.6-2.4-1.7-1.1-1-1.7-2.4-0.5-1.4-0.5-2.9z"/><path class="F" d="m118.3 184.2h68.9v24.8h-68.9z"/><path class="F" d="m118.3 213.6h24.2v7.7h-24.2z"/><path class="F" d="m146.2 213.6h41v7.7h-41z"/><path class="F" d="m106.7 167.6h84.1v12.9h-84.1z"/><path class="G" d="m106.7 180.3h84.1v0.2h-84.1z"/><path class="g" d="m111.9 175.9c-1.2 0-2.1-1-2.1-2.2 0-1.1 0.9-2.1 2.1-2.1 1.2 0 2.1 1 2.1 2.1 0 1.2-0.9 2.2-2.1 2.2z"/><path class="g" d="m118.3 175.9c-1.2 0-2.2-1-2.2-2.2 0-1.1 1-2.1 2.2-2.1 1.1 0 2.1 1 2.1 2.1 0 1.2-1 2.2-2.1 2.2z"/><path class="g" d="m124.6 171.6c0.8 0 1.6 0.5 1.9 1.3 0.4 0.8 0.2 1.7-0.4 2.4-0.6 0.6-1.5 0.7-2.3 0.4-0.8-0.3-1.3-1.1-1.3-2q0-0.4 0.1-0.8 0.2-0.4 0.5-0.7 0.3-0.3 0.7-0.4 0.4-0.2 0.8-0.2z"/><path class="F" d="m109.8 184c0-0.9 0.7-1.6 1.5-1.6h1.1c0.9 0 1.6 0.7 1.6 1.6v56c0 0.8-0.7 1.5-1.6 1.5h-1.1c-0.8 0-1.5-0.7-1.5-1.5z"/><path class="D" d="m110.9 184.9c0-0.4 0.3-0.7 0.6-0.7h0.4c0.4 0 0.7 0.3 0.7 0.7v14.2c0 0.4-0.3 0.6-0.7 0.6h-0.4c-0.3 0-0.6-0.2-0.6-0.6z"/><path class="H" d="m120.9 187.8h29.1"/><path class="H" d="m152.7 187.8h4.8"/><path class="H" d="m162.7 187.8h20.6"/><path class="H" d="m120.9 190.7h35.2"/><path class="H" d="m159.5 190.2h14.3"/><path class="H" d="m176.5 190.2h7.2"/><path class="H" d="m122.5 194.4h41.5"/><path class="H" d="m168.9 194.4h11.2"/><path class="H" d="m183.7 197.7h-32.1"/><path class="H" d="m165.4 202.2h-44.5"/><path class="H" d="m151.6 205.1h32.9"/><path class="H" d="m155.1 206.5h-27"/><path class="H" d="m120.9 197.7h11.8"/><path class="H" d="m139.9 215.4h-8.1"/><path class="H" d="m139.1 218.9h-18.7"/><path class="H" d="m148.2 215.4h3.4"/><path class="H" d="m154.4 215.4h3.3"/><path class="H" d="m160.5 215.4h3.4"/><path class="H" d="m166.6 215.4h3.4"/><path class="H" d="m172.8 215.4h3.3"/><path class="H" d="m178.9 215.4h3.4"/><path class="H" d="m148.2 218h2.2"/><path class="H" d="m153.3 218h2.2"/><path class="H" d="m158.3 218h2.2"/><path class="H" d="m163.4 218h2.1"/><path class="H" d="m168.4 218h2.2"/><path class="H" d="m173.5 218h2.1"/><path class="H" d="m178.5 218h2.2"/><path class="H" d="m123 231.6l-2.4 2.4 2.3 2.3"/><path class="H" d="m125.4 231.6l-2.4 2.4 2.3 2.3"/><path class="F" d="m314.9 208.6h67.1v26.5q0 1.5-0.6 2.9-0.5 1.4-1.6 2.5-1.1 1-2.4 1.6-1.4 0.6-2.9 0.6h-52.1q-1.5 0-2.9-0.6-1.3-0.6-2.4-1.6-1.1-1.1-1.6-2.5-0.6-1.4-0.6-2.9z"/><path class="F" d="m321.8 218.5h39v14.8h-39z"/><path class="F" d="m314.9 208.6h67.1v7.7h-67.1z"/><path class="F" d="m318 213.8c-0.9 0-1.6-0.7-1.6-1.6 0-0.8 0.7-1.6 1.6-1.6 0.9 0 1.6 0.8 1.6 1.6 0 0.9-0.7 1.6-1.6 1.6z"/><path class="D" d="m318 213.8q-0.3 0-0.6-0.1-0.3-0.1-0.5-0.3-0.2-0.2-0.4-0.5-0.1-0.3-0.1-0.6c0 0.4 0.2 0.8 0.5 1.1 0.3 0.3 0.7 0.5 1.1 0.5 0.4 0 0.8-0.2 1.1-0.5 0.3-0.3 0.5-0.7 0.5-1.1q0 0.3-0.1 0.6-0.1 0.3-0.4 0.5-0.2 0.2-0.5 0.3-0.3 0.1-0.6 0.1z"/><path class="F" d="m321.8 213.8c-0.9 0-1.6-0.7-1.6-1.6 0-0.8 0.7-1.6 1.6-1.6 0.9 0 1.6 0.8 1.6 1.6 0 0.9-0.7 1.6-1.6 1.6z"/><path class="D" d="m321.8 213.8q-0.3 0-0.6-0.1-0.3-0.1-0.5-0.3-0.2-0.2-0.3-0.5-0.2-0.3-0.2-0.6c0 0.4 0.2 0.8 0.5 1.1 0.3 0.3 0.7 0.5 1.1 0.5 0.5 0 0.9-0.2 1.2-0.5 0.3-0.3 0.4-0.7 0.4-1.1q0 0.3-0.1 0.6-0.1 0.3-0.3 0.5-0.3 0.2-0.6 0.3-0.3 0.1-0.6 0.1z"/><path class="F" d="m325.6 213.8c-0.9 0-1.6-0.7-1.6-1.6 0-0.8 0.7-1.6 1.6-1.6 0.9 0 1.6 0.8 1.6 1.6 0 0.9-0.7 1.6-1.6 1.6z"/><path class="D" d="m325.6 213.8q-0.3 0-0.6-0.1-0.3-0.1-0.5-0.3-0.2-0.2-0.4-0.5-0.1-0.3-0.1-0.6c0 0.4 0.2 0.8 0.5 1.1 0.3 0.3 0.7 0.5 1.1 0.5 0.4 0 0.8-0.2 1.1-0.5 0.3-0.3 0.5-0.7 0.5-1.1q0 0.3-0.1 0.6-0.1 0.3-0.4 0.5-0.2 0.2-0.5 0.3-0.3 0.1-0.6 0.1z"/><path class="G" d="m314.9 216.2h67.1v0.1h-67.1z"/><path class="D" d="m318 213.5c-0.7 0-1.3-0.6-1.3-1.3 0-0.7 0.6-1.2 1.3-1.2 0.7 0 1.3 0.5 1.3 1.2 0 0.7-0.6 1.3-1.3 1.3z"/><path class="J" d="m321.8 213.5c-0.7 0-1.2-0.6-1.2-1.3 0-0.7 0.5-1.2 1.2-1.2 0.7 0 1.3 0.5 1.3 1.2 0 0.7-0.6 1.3-1.3 1.3z"/><path class="K" d="m325.6 213.5c-0.7 0-1.3-0.6-1.3-1.3 0-0.7 0.6-1.2 1.3-1.2 0.7 0 1.3 0.5 1.3 1.2 0 0.7-0.6 1.3-1.3 1.3z"/><path class="F" d="m316.7 218.5c0-0.6 0.5-1.1 1.1-1.1h0.4c0.6 0 1.1 0.5 1.1 1.1v20c0 0.6-0.5 1.1-1.1 1.1h-0.4c-0.6 0-1.1-0.5-1.1-1.1z"/><path class="D" d="m317.4 218.9c0-0.2 0.2-0.4 0.4-0.4h0.2c0.2 0 0.4 0.2 0.4 0.4v8.5c0 0.2-0.2 0.4-0.4 0.4h-0.2c-0.2 0-0.4-0.2-0.4-0.4z"/><path class="L" d="m335.6 220.1h-12.3q-0.1 0-0.2-0.1 0 0 0-0.1 0-0.1 0-0.2 0.1 0 0.2 0h12.3q0 0 0.1 0 0.1 0.1 0.1 0.2 0 0.1-0.1 0.1-0.1 0.1-0.1 0.1z"/><path class="L" d="m338.2 220.1h-1.7q-0.1 0-0.1-0.1-0.1 0-0.1-0.1 0-0.1 0.1-0.2 0 0 0.1 0h1.7q0.1 0 0.1 0 0.1 0.1 0.1 0.2 0 0.1-0.1 0.1 0 0.1-0.1 0.1z"/><path class="L" d="m354.9 220.1h-14.9q-0.1 0-0.2-0.1 0 0 0-0.1 0-0.1 0-0.2 0.1 0 0.2 0h14.9q0.1 0 0.1 0 0.1 0.1 0.1 0.2 0 0.1-0.1 0.1 0 0.1-0.1 0.1z"/><path class="L" d="m337.7 221.1h-14.4q-0.1 0-0.2 0 0-0.1 0-0.2 0-0.1 0-0.1 0.1-0.1 0.2-0.1h14.4q0.1 0 0.1 0.1 0.1 0 0.1 0.1 0 0.1-0.1 0.2 0 0-0.1 0z"/><path class="L" d="m351.6 220.9h-12.7q-0.1 0-0.2 0 0-0.1 0-0.2 0 0 0-0.1 0.1-0.1 0.2-0.1h12.7q0.1 0 0.1 0.1 0.1 0.1 0.1 0.1 0 0.1-0.1 0.2 0 0-0.1 0z"/><path class="L" d="m355 220.9h-2.5q-0.1 0-0.2 0 0-0.1 0-0.2 0 0 0-0.1 0.1-0.1 0.2-0.1h2.5q0.1 0 0.2 0.1 0 0.1 0 0.1 0 0.1 0 0.2-0.1 0-0.2 0z"/><path class="L" d="m340.4 222.4h-16.6q-0.1 0-0.1 0-0.1-0.1-0.1-0.2 0-0.1 0.1-0.1 0-0.1 0.1-0.1h16.6q0.1 0 0.2 0.1 0.1 0 0.1 0.1 0 0.1-0.1 0.2-0.1 0-0.2 0z"/><path class="L" d="m353.8 222.4h-4q-0.1 0-0.1 0-0.1-0.1-0.1-0.2 0-0.1 0.1-0.1 0-0.1 0.1-0.1h4q0.1 0 0.1 0.1 0.1 0 0.1 0.1 0 0.1-0.1 0.2 0 0-0.1 0z"/><path class="L" d="m355 223.6h-18.9q-0.1 0-0.1-0.1-0.1 0-0.1-0.1 0-0.1 0.1-0.2 0 0 0.1 0h18.9q0.1 0 0.2 0 0 0.1 0 0.2 0 0.1 0 0.1-0.1 0.1-0.2 0.1z"/><path class="L" d="m340.9 225.2h-17.6q-0.1 0-0.2-0.1 0-0.1 0-0.2 0 0 0-0.1 0.1-0.1 0.2-0.1h17.6q0.1 0 0.2 0.1 0.1 0.1 0.1 0.1 0 0.1-0.1 0.2-0.1 0.1-0.2 0.1z"/><path class="L" d="m355.3 226.1h-19.2q-0.1 0-0.1 0-0.1-0.1-0.1-0.2 0 0 0.1-0.1 0-0.1 0.1-0.1h19.2q0.1 0 0.1 0.1 0.1 0.1 0.1 0.1 0 0.1-0.1 0.2 0 0-0.1 0z"/><path class="L" d="m331 226.6h-5.2q-0.1 0-0.2 0 0-0.1 0-0.2 0-0.1 0-0.1 0.1-0.1 0.2-0.1h5.2q0.1 0 0.2 0.1 0.1 0 0.1 0.1 0 0.1-0.1 0.2-0.1 0-0.2 0z"/><path class="L" d="m327.4 223.6h-4.1q-0.1 0-0.2-0.1 0 0 0-0.1 0-0.1 0-0.2 0.1 0 0.2 0h4.1q0.1 0 0.1 0 0.1 0.1 0.1 0.2 0 0.1-0.1 0.1 0 0.1-0.1 0.1z"/><path class="F" d="m281.3 36.4h119.6v166.2q0 1.5-0.5 2.9-0.6 1.3-1.7 2.4-1 1.1-2.4 1.6-1.4 0.6-2.9 0.6h-104.6q-1.5 0-2.9-0.6-1.4-0.5-2.4-1.6-1.1-1.1-1.7-2.4-0.5-1.4-0.5-2.9z"/><path class="F" d="m297.2 59.3h94.8v82.9h-94.8z"/><path class="F" d="m297.2 164.7h33.3v10.6h-33.3z"/><path class="F" d="m335.5 164.7h56.5v10.6h-56.5z"/><path class="F" d="m297.2 181.6h94.8v14.7h-94.8z"/><path class="F" d="m281.3 36.4h119.6v17.8h-119.6z"/><path class="G" d="m281.3 53.9h119.6v0.3h-119.6z"/><path class="g" d="m288.4 47.8c-1.6 0-2.9-1.3-2.9-2.9 0-1.6 1.3-2.9 2.9-2.9 1.6 0 2.9 1.3 2.9 2.9 0 1.6-1.3 2.9-2.9 2.9z"/><path class="g" d="m297.2 47.8c-1.6 0-2.9-1.3-2.9-2.9 0-1.6 1.3-2.9 2.9-2.9 1.6 0 2.9 1.3 2.9 2.9 0 1.6-1.3 2.9-2.9 2.9z"/><path class="g" d="m305.9 47.8c-1.6 0-2.9-1.3-2.9-2.9 0-1.6 1.3-2.9 2.9-2.9 1.6 0 2.9 1.3 2.9 2.9 0 1.6-1.3 2.9-2.9 2.9z"/><path class="F" d="m285.5 59.2c0-1.4 1.1-2.5 2.4-2.5h1c1.3 0 2.4 1.1 2.4 2.5v141.4c0 1.4-1.1 2.5-2.4 2.5h-1c-1.3 0-2.4-1.1-2.4-2.5z"/><path class="D" d="m287.1 60.2c-0.1-0.5 0.4-0.9 0.9-0.9h0.4c0.5 0 1 0.4 1 0.9v19.4c0 0.6-0.5 1-1 1h-0.4c-0.5 0-1-0.4-1-1z"/><path class="H" d="m300.9 64.1h39.9"/><path class="H" d="m344.6 64.1h6.5"/><path class="H" d="m358.2 64.1h28.3"/><path class="H" d="m300.9 68.2h48.2"/><path class="H" d="m353.9 67.5h19.6"/><path class="H" d="m377.1 67.5h10"/><path class="H" d="m303 73.3h57"/><path class="H" d="m366.7 73.3h15.4"/><path class="H" d="m387.1 77.8h-44.1"/><path class="H" d="m361.9 84h-61"/><path class="H" d="m343 87.9h45.2"/><path class="H" d="m386.4 148.4h-37.1"/><path class="H" d="m300.9 77.8h16.2"/><path class="H" d="m326.9 167.1h-11.2"/><path class="H" d="m325.9 172.1h-25.8"/><path class="H" d="m338.4 167.1h4.6"/><path class="H" d="m346.8 167.1h4.6"/><path class="H" d="m355.2 167.1h4.7"/><path class="H" d="m363.7 167.1h4.6"/><path class="H" d="m372.1 167.1h4.6"/><path class="H" d="m380.5 167.1h4.6"/><path class="H" d="m338.4 170.7h3"/><path class="H" d="m345.3 170.7h3"/><path class="H" d="m352.3 170.7h2.9"/><path class="H" d="m359.2 170.7h3"/><path class="H" d="m366.1 170.7h3"/><path class="H" d="m373.1 170.7h2.9"/><path class="H" d="m380 170.7h3"/><path class="H" d="m303.7 185.4l-3.3 3.2 3.2 3.2"/><path class="H" d="m307 185.4l-3.3 3.2 3.2 3.2"/><path class="H" d="m315.1 185.4h70"/><path class="H" d="m315.1 188.6h42.4"/><path class="H" d="m315.1 193.1h42.4"/><path fill-rule="evenodd" class="E" d="m400.9 219.1c-2.9 0-5.5-1.7-6.7-4.4-1.1-2.7-0.5-5.9 1.6-7.9 2.1-2.1 5.2-2.7 7.9-1.6 2.7 1.1 4.5 3.8 4.5 6.7q0 1.4-0.6 2.8-0.5 1.3-1.6 2.3-1 1-2.3 1.6-1.3 0.5-2.8 0.5zm0-13.1c-2.4 0-4.5 1.4-5.5 3.6-0.9 2.2-0.4 4.8 1.3 6.5 1.7 1.7 4.3 2.2 6.5 1.3 2.2-0.9 3.7-3.1 3.7-5.5q0-1.2-0.5-2.3-0.4-1.1-1.3-1.9-0.8-0.8-1.9-1.3-1.1-0.4-2.3-0.4z"/><path fill-rule="evenodd" class="E" d="m81.5 190c-2.9 0-5.5-1.8-6.6-4.5-1.2-2.7-0.5-5.8 1.5-7.9 2.1-2.1 5.2-2.7 7.9-1.6 2.7 1.2 4.5 3.8 4.5 6.7q0 1.5-0.6 2.8-0.5 1.3-1.5 2.3-1.1 1.1-2.4 1.6-1.3 0.6-2.8 0.6zm0-13.2c-2.4 0-4.5 1.4-5.4 3.6-1 2.3-0.5 4.8 1.2 6.5 1.7 1.7 4.3 2.2 6.5 1.3 2.2-0.9 3.7-3.1 3.7-5.5q0-1.2-0.5-2.2-0.4-1.1-1.3-2-0.8-0.8-1.9-1.3-1.1-0.4-2.3-0.4z"/><path class="E" d="m209.9 50l1.7-1.7 15.1 15.2-1.7 1.6z"/><path class="E" d="m209.9 63.5l15.1-15.2 1.7 1.7-15.1 15.1z"/><path fill-rule="evenodd" class="E" d="m85.7 240.6l-17-17 17-17 17 17zm-13.6-17l13.6 13.6 13.6-13.6-13.6-13.6z"/><path fill-rule="evenodd" class="E" d="m117.1 321.1l-17-17 17-17 17 17zm-13.6-17l13.6 13.6 13.6-13.6-13.6-13.6z"/><path class="E" d="m433.3 175l-10-10 10-9.9 1 1-8.9 8.9 8.9 9z"/><path class="E" d="m441 175l-10-10 10-9.9 1 1-8.9 8.9 8.9 9z"/><path class="E" d="m148.5 334.5l10-10-10-10-1 1.1 8.9 8.9-8.9 9z"/><path class="E" d="m140.8 334.5l10-10-10-10-1 1.1 8.9 8.9-8.9 9z"/><path class="E" d="m271.5 105.1l-10-9.9 10-10 1.1 1-9 9 9 8.9z"/><path class="E" d="m279.2 105.1l-10-9.9 10-10 1.1 1-9 9 9 8.9z"/><path fill-rule="evenodd" class="E" d="m426.8 131.5h-7q-0.4 0-0.7-0.1-0.3-0.2-0.6-0.4-0.2-0.3-0.4-0.6-0.1-0.4-0.1-0.7v-4.1h-1.7q-0.5 0-0.9-0.3-0.5-0.3-0.7-0.7-0.2-0.5-0.1-1 0.1-0.5 0.5-0.9l7-7q0.2-0.2 0.5-0.3 0.3-0.2 0.7-0.2 0.3 0 0.6 0.2 0.3 0.1 0.6 0.3l6.9 7q0.4 0.4 0.5 0.9 0.1 0.5-0.1 1-0.2 0.4-0.6 0.7-0.4 0.3-1 0.3h-1.6v4.1q0 0.3-0.2 0.7-0.1 0.3-0.4 0.6-0.2 0.2-0.5 0.4-0.4 0.1-0.7 0.1zm-3.5-15.1q-0.1 0-0.1 0-0.1 0.1-0.1 0.1-0.1 0-0.1 0 0 0-0.1 0.1l-6.9 7q-0.2 0.1-0.2 0.2 0 0.2 0 0.3 0.1 0.1 0.2 0.2 0.2 0.1 0.3 0.1h2.9v5.3q0 0.1 0 0.2 0.1 0.1 0.2 0.2 0 0.1 0.2 0.2 0.1 0 0.2 0h7q0.1 0 0.2 0 0.1-0.1 0.2-0.2 0.1-0.1 0.1-0.2 0.1-0.1 0.1-0.2v-5.3h2.9q0.1 0 0.2-0.1 0.1-0.1 0.2-0.2 0.1-0.1 0-0.3 0-0.1-0.1-0.2l-7-7q0-0.1 0-0.1-0.1 0-0.1 0-0.1 0-0.1-0.1-0.1 0-0.1 0z"/><path class="I" d="m413.9 234.5q-0.5-1-1.3-1.9-0.7-1-1.5-1.8-0.8-0.8-1.7-1.5-1-0.7-2-1.3-1-0.6-2.1-1.1-1-0.4-2.2-0.7-1.1-0.3-2.3-0.5-1.1-0.1-2.3-0.1-1.2 0-2.4 0.1-1.1 0.2-2.3 0.5-1.1 0.3-2.2 0.7-1.1 0.5-2.1 1.1-1 0.6-1.9 1.3-0.9 0.7-1.8 1.5-0.8 0.8-1.5 1.8-0.7 0.9-1.3 1.9-0.6 1-1 2.1-0.5 1.1-0.8 2.2-0.3 1.1-0.4 2.3-0.2 1.2-0.2 2.3 0 1.5 0.2 2.8 0.2 1.4 0.7 2.8 0.4 1.3 1 2.6 0.7 1.2 1.5 2.3 0.8 1.2 1.8 2.2 1 1 2.1 1.8 1.1 0.8 2.4 1.4 1.2 0.7 2.5 1.1 0.1 0 0.3 0 0.1 0 0.2 0 0.1 0 0.2 0 0.2-0.1 0.3-0.2 0 0 0.1-0.1 0-0.1 0.1-0.2 0-0.1 0-0.2 0.1-0.1 0.1-0.2 0 0-0.1-1.2 0-1.2 0-2.1l-0.5 0.1q-0.2 0-0.3 0-0.2 0.1-0.3 0.1-0.2 0-0.4 0-0.1 0-0.3 0-0.2 0-0.4 0-0.2 0-0.4-0.1-0.2 0-0.4 0-0.2 0-0.4-0.1-0.2 0-0.4-0.1-0.2 0-0.4-0.1-0.2-0.1-0.4-0.2-0.2-0.1-0.4-0.3-0.1-0.1-0.3-0.3-0.2-0.1-0.3-0.3-0.1-0.2-0.2-0.4-0.1-0.2-0.2-0.4l-0.2-0.5q-0.1-0.2-0.2-0.4-0.1-0.1-0.1-0.3-0.1-0.1-0.2-0.2-0.1-0.2-0.2-0.3-0.1-0.2-0.3-0.3-0.1-0.1-0.2-0.2-0.1-0.1-0.3-0.2-0.1-0.1-0.3-0.2l-0.1-0.1q-0.1-0.1-0.1-0.1 0 0-0.1-0.1 0 0-0.1 0 0-0.1 0-0.1-0.1 0-0.1-0.1 0 0 0-0.1-0.1 0-0.1 0 0-0.1 0-0.1-0.1-0.2 0.1-0.3 0.1 0 0.1-0.1 0.1 0 0.2 0 0.1 0 0.2 0 0.1 0 0.2 0l0.4 0.1q0.2 0 0.3 0.1 0.2 0 0.3 0.1 0.2 0.1 0.3 0.1 0.1 0.1 0.3 0.2 0.1 0.1 0.3 0.3 0.2 0.1 0.3 0.3 0.1 0.1 0.3 0.3 0.1 0.2 0.2 0.3 0.1 0.3 0.3 0.5 0.1 0.2 0.3 0.3 0.1 0.2 0.3 0.4 0.2 0.1 0.4 0.3 0.2 0.1 0.3 0.2 0.2 0.1 0.4 0.2 0.2 0 0.4 0 0.2 0.1 0.4 0.1 0.2 0 0.3 0 0.2 0 0.4 0 0.1-0.1 0.3-0.1 0.2 0 0.3 0 0.2-0.1 0.3-0.1 0.1 0 0.3-0.1 0.1 0 0.2-0.1 0.2 0 0.3-0.1 0-0.3 0.1-0.6 0.1-0.4 0.2-0.7 0.2-0.3 0.4-0.6 0.2-0.2 0.4-0.5-0.3 0-0.6 0-0.3-0.1-0.6-0.1-0.3-0.1-0.6-0.2-0.3 0-0.6-0.1-0.2-0.1-0.5-0.2-0.3-0.1-0.6-0.2-0.3-0.1-0.5-0.2-0.3-0.2-0.5-0.3-0.3-0.1-0.6-0.3-0.2-0.2-0.5-0.4-0.2-0.2-0.4-0.4-0.2-0.2-0.4-0.5-0.2-0.2-0.4-0.5-0.2-0.3-0.3-0.6-0.2-0.3-0.3-0.6-0.1-0.4-0.2-0.7-0.2-0.4-0.3-0.9 0-0.4-0.1-0.8-0.1-0.5-0.1-0.9 0-0.4 0-0.9 0-0.6 0.1-1.3 0.1-0.6 0.3-1.3 0.3-0.6 0.6-1.1 0.4-0.6 0.8-1.1-0.2-0.5-0.3-1.1-0.1-0.6-0.1-1.3 0.1-0.6 0.2-1.2 0.1-0.6 0.4-1.1 0.2-0.1 0.5-0.1 0.3 0 0.5 0.1 0.3 0 0.5 0.1 0.3 0.1 0.5 0.2 0.2 0.1 0.5 0.2 0.2 0.1 0.5 0.2 0.2 0.1 0.5 0.2 0.2 0.2 0.4 0.3 0.6 0.4 1 0.6 1.1-0.3 2.2-0.4 1.1-0.2 2.3-0.2 1.1 0 2.2 0.2 1.2 0.1 2.2 0.4l0.9-0.5q0.3-0.2 0.5-0.3 0.3-0.2 0.6-0.3 0.2-0.1 0.5-0.2 0.3-0.2 0.6-0.3 0.2-0.1 0.4-0.1 0.2-0.1 0.5-0.1 0.2-0.1 0.5-0.1 0.2 0 0.5 0.1 0.2 0.5 0.3 1.1 0.2 0.6 0.2 1.2 0 0.7-0.1 1.3-0.1 0.6-0.3 1.1 0.5 0.5 0.8 1.1 0.4 0.5 0.6 1.1 0.3 0.7 0.4 1.3 0.1 0.7 0.1 1.3 0 0.5 0 0.9-0.1 0.5-0.1 0.9-0.1 0.4-0.2 0.9-0.1 0.4-0.2 0.8-0.1 0.4-0.2 0.7-0.1 0.3-0.3 0.6-0.2 0.3-0.3 0.6-0.2 0.3-0.4 0.6-0.2 0.2-0.4 0.4-0.3 0.2-0.5 0.4-0.2 0.2-0.5 0.4-0.2 0.2-0.5 0.3-0.3 0.2-0.5 0.3-0.3 0.1-0.6 0.2-0.3 0.1-0.5 0.2-0.3 0.1-0.6 0.2-0.3 0.1-0.6 0.2-0.3 0-0.6 0.1-0.3 0-0.6 0.1-0.3 0-0.6 0 0.3 0.4 0.6 0.7 0.2 0.4 0.4 0.9 0.1 0.4 0.2 0.8 0.1 0.5 0 0.9v4.9q0 0.1 0 0.2 0.1 0.1 0.1 0.2 0 0.1 0.1 0.2 0 0.1 0.1 0.1 0.1 0.1 0.2 0.2 0.1 0 0.3 0 0.1 0 0.2 0 0.1 0 0.2 0 1.4-0.4 2.6-1.1 1.2-0.6 2.3-1.4 1.2-0.8 2.1-1.8 1-1 1.8-2.2 0.9-1.1 1.5-2.3 0.7-1.3 1.1-2.6 0.4-1.4 0.6-2.8 0.3-1.3 0.2-2.8 0-1.1-0.1-2.3-0.2-1.2-0.5-2.3-0.3-1.1-0.7-2.2-0.5-1.1-1.1-2.1z"/><path fill-rule="evenodd" class="I" d="m278.3 60.5c3.8 0 6 2.4 5.9 4.7q-0.1 0.4-0.2 0.8-0.2 0.4-0.4 0.8-0.3 0.3-0.7 0.5-0.3 0.3-0.7 0.4c-0.2 0-0.4 0.1-0.4-0.1 0-0.1 0.1-0.2 0.3-0.3q0.2-0.2 0.4-0.4 0.2-0.1 0.4-0.3 0.1-0.3 0.2-0.5 0.1-0.2 0.2-0.5c0.1-0.9-0.6-3.2-4.3-3.6q-0.5-0.1-1-0.1-0.5 0-1 0-0.5 0.1-1.1 0.2-0.5 0.1-0.9 0.3 0 0.2 0.1 0.4 0.1 0.2 0.1 0.4 0 0.2 0.1 0.4 0 0.2 0 0.4 0 0.4-0.1 0.7-0.1 0.4-0.3 0.8-0.2 0.3-0.5 0.6-0.3 0.3-0.7 0.5-0.1 0.1-0.3 0.2-0.2 0.1-0.3 0.2-0.2 0.1-0.4 0.1-0.2 0.1-0.4 0.2-0.1 0.1-0.2 0.1-0.2 0-0.3 0.1-0.2 0-0.3 0-0.2 0-0.3 0c-0.7-0.1-1.1-0.8-0.6-2.2q0.2-0.4 0.4-0.8 0.2-0.4 0.5-0.8 0.3-0.3 0.6-0.6 0.4-0.4 0.7-0.7-0.1-0.2-0.2-0.4-0.1-0.2-0.2-0.4-0.1-0.2-0.1-0.4-0.1-0.2-0.2-0.5-0.1-0.2-0.1-0.4-0.1-0.2-0.1-0.4-0.1-0.2-0.1-0.4-0.1-0.2-0.1-0.4-0.3 0.5-0.5 1-0.3 0.5-0.6 1-0.3 0.5-0.6 1-0.3 0.5-0.6 0.9-0.1 0.2-0.2 0.4 0.1 0.2 0.2 0.4 0 0.2 0.1 0.5 0.1 0.2 0.1 0.4 0 0.3 0.1 0.5 0 0.4-0.1 0.8-0.1 0.3-0.2 0.7-0.2 0.3-0.5 0.6-0.2 0.3-0.5 0.5-0.2 0.1-0.3 0.2-0.2 0.1-0.4 0.2-0.1 0.1-0.3 0.2-0.2 0.1-0.4 0.1-0.1 0.1-0.3 0.2-0.2 0-0.4 0.1-0.2 0-0.4 0-0.2 0.1-0.4 0.1-0.1 0-0.3 0-0.1 0-0.2 0-0.2 0-0.3-0.1-0.1 0-0.2-0.1-0.1-0.1-0.2-0.2-0.1-0.1-0.1-0.2 0-0.1 0-0.2 0-0.2 0.1-0.3 0.2-0.3 0.4-0.6 0.3-0.3 0.5-0.6 0.3-0.4 0.5-0.7 0.3-0.3 0.6-0.5 0.3-0.5 0.6-0.9c0 0 0.1-0.2 0.4-0.5q-0.1-0.3-0.3-0.5-0.1-0.2-0.2-0.5-0.1-0.2-0.2-0.5-0.1-0.2-0.2-0.5 0-0.2-0.1-0.4-0.1-0.2-0.1-0.4-0.1-0.2-0.1-0.5 0-0.2-0.1-0.4c0 0-1 2.6-2.1 4.7-0.8 1.6-1.3 2.6-1.6 3v0.1q0 0-0.1 0.1 0 0.1 0 0.1c-0.3 0.4-0.9 1.2-1.5 1.2-1.7 0-1.1-3.4-1.1-3.4 0 0-0.5 1.2-1.1 2.3-0.4 0.9-0.8 1.7-1.7 1.7q-0.2 0-0.3 0-0.1-0.1-0.3-0.1-0.1 0-0.2-0.1-0.1-0.1-0.2-0.2-0.4-0.4-0.6-0.9-0.3-0.5-0.4-1-0.2-0.5-0.3-1 0-0.6 0-1.1 0-0.4 0.1-0.7 0-0.4 0.1-0.7 0.1-0.4 0.1-0.7 0.1-0.4 0.3-0.7-0.8 0.4-1.6 0.9l-0.8 0.5q0.3 0.8 0.4 1.6 0.2 0.9 0.1 1.7-0.1 0.9-0.4 1.7-0.3 0.8-0.7 1.5-0.6 0.9-1.4 1.6-0.8 0.6-1.7 1-1 0.4-2 0.5-1 0-2-0.2c-0.9-0.2-2.2-2.1-1.1-4.6 1-2.3 5.1-4.4 6.2-4.9q0.1-0.1 0.3-0.2c-2.2-1.9-7.5-4.4-8.2-8.2-0.2-1.1 0.3-3.7 3.5-6.7q1-1 2.2-1.8 1.2-0.8 2.4-1.6 1.3-0.7 2.6-1.3 1.3-0.5 2.7-1c5.8-2.1 11.9-0.9 12.9 2.8 0.9 3.7-2.3 8-6.3 9.6q-0.9 0.4-1.9 0.7-1 0.2-2 0.3-1 0.1-2 0-1 0-2-0.2-0.3-0.1-0.7-0.3-0.3-0.2-0.7-0.4-0.3-0.3-0.5-0.6-0.3-0.3-0.5-0.6c-0.1-0.2-0.2-0.6 0-0.7 0.2-0.1 0.2 0 0.6 0.3 0.3 0.4 1.6 1.4 4.2 1.1 6.7-0.7 10.7-5.9 9.4-8.7-0.9-2-6-2.8-12.5 0.4-7.8 3.9-8.2 7.1-8.3 8.3-0.2 3.4 4.2 5.2 6.5 7.7l0.1 0.1q0.7-0.4 1.4-0.8c1.2-0.6 2.3-1.2 2.8-1.5 0.8-1.2 2.5-2.6 3.7-2.6 2 0 1.3 2.8 1.3 2.8 0 0 0-0.1 0.1-0.1q0.1-0.1 0.2-0.1 0.1-0.1 0.2-0.1 0.1 0 0.2 0 0.1 0 0.2 0c0.7 0.3 0.5 0.7 0.5 0.7 0 0.1-0.7 2.6-1 4.2q-0.1 0.1-0.1 0.3 0 0.2 0 0.3 0 0.2 0 0.4 0 0.1 0.1 0.3c0 0 0.1-0.2 0.3-0.4l0.2-0.4c0-0.1-0.2 0.2 0-0.1q0.3-0.5 0.7-1.4c0.5-1.2 2.6-5.8 2.8-6.3 0.1-0.5 0.2-1 0.3-1.2 0.1-0.3 0.8-0.4 1.7-0.4 0.8 0 0.9 0.3 0.9 0.4q-0.1 0.2-0.1 0.4-0.1 0.3-0.2 0.5 0 0.2-0.1 0.4 0 0.3-0.1 0.5 0 0.2 0 0.4 0 0.2 0 0.4 0 0.2 0 0.4 0 0.3 0.1 0.5 0 0.1 0.1 0.3 0 0.2 0.1 0.4 0.1 0.2 0.2 0.4 0.1 0.1 0.2 0.3 0.3-0.6 0.7-1.2 0.3-0.6 0.7-1.2 0.3-0.6 0.6-1.3 0.3-0.6 0.5-1.2 0.1-0.2 0.1-0.4 0-0.1 0.1-0.3 0-0.1 0.1-0.3 0-0.1 0.1-0.3c0.1-0.2 0.8-0.4 1.6-0.4 0.9 0 1 0.4 1 0.5q-0.1 0.2-0.2 0.4 0 0.2-0.1 0.4-0.1 0.3-0.1 0.5-0.1 0.2-0.1 0.5 0 0.2 0 0.4-0.1 0.2 0 0.4 0 0.2 0 0.4 0 0.2 0.1 0.4 0 0.3 0.1 0.5 0.1 0.3 0.2 0.5 0.1 0.3 0.2 0.5 0.2 0.3 0.3 0.5 0.5-0.2 0.9-0.4 0.5-0.2 1-0.3 0.4-0.1 0.9-0.1 0.5-0.1 1-0.1zm-27.3 8.4q0.3-0.6 0.5-1.3 0.1-0.7 0.1-1.4 0-0.7-0.2-1.3-0.1 0-0.2 0.1 0 0 0 0 0 0 0 0-0.1 0-0.1 0 0 0 0 0-0.5 0.3-0.7 0.5-0.4 0.2-0.8 0.5-0.3 0.2-0.7 0.5-0.4 0.2-0.7 0.5-0.3 0.3-0.7 0.6c-1.5 1.4-1.8 3.4-1 3.8 0.7 0.4 2.4-0.1 3.6-1.4q0.5-0.5 0.9-1.1zm9-8.8c-0.1-0.3-0.9 0-1.5 0.7q-0.3 0.3-0.5 0.6-0.2 0.3-0.3 0.7-0.2 0.3-0.4 0.6-0.1 0.4-0.3 0.7c-0.6 2-0.3 4 0.1 4.1 0.6 0.2 1.5-2.5 1.9-3.5 0.2-0.6 1.3-3.5 1-3.9zm6.9 7q0.2-0.3 0.5-0.6 0.2-0.3 0.3-0.6 0.1-0.3 0.2-0.7v-0.1q-0.4 0.5-0.7 0.9c-0.4 0.5-1.3 1.4-1.3 1.4 0 0-0.1 0.2-0.1 0.2 0.1 0 0.3 0 0.5-0.1q0.3-0.2 0.6-0.4zm5.7-1.2q0.3-0.2 0.5-0.5 0.2-0.3 0.4-0.7 0.1-0.4 0.1-0.8 0 0 0-0.1 0-0.1-0.1-0.2 0-0.1 0-0.2 0-0.1-0.1-0.2-0.2 0.2-0.3 0.4-0.2 0.2-0.4 0.4-0.1 0.2-0.3 0.4-0.1 0.2-0.2 0.5c-0.4 0.9-0.5 1.2-0.3 1.3q0.3-0.1 0.7-0.3z"/><path class="M" d="m79.5 246.6q-0.2 0-0.1-0.1l0.6-0.8c0.1-0.1 0.2-0.1 0.4-0.1h10.4c0.1 0 0.1 0.1 0 0.1l-0.5 0.8c0 0.1-0.2 0.2-0.2 0.2z"/><path class="M" d="m75.1 249.3q-0.2-0.1-0.1-0.2l0.6-0.8c0.1 0 0.2-0.1 0.4-0.1h13.2c0.2 0 0.2 0.1 0.2 0.2l-0.2 0.7c-0.1 0.1-0.2 0.1-0.3 0.1z"/><path class="M" d="m82.2 251.9c-0.2 0-0.2-0.1-0.1-0.2l0.4-0.7c0-0.1 0.2-0.2 0.3-0.2h5.8q0.2 0 0.2 0.2l-0.1 0.7c0 0.1-0.1 0.2-0.2 0.2z"/><path class="M" d="m112.4 246.1c-1.8 0.5-3.1 0.8-4.9 1.3-0.4 0.1-0.5 0.1-0.8-0.3-0.5-0.5-0.8-0.8-1.4-1.1-1.8-0.9-3.6-0.6-5.3 0.4-2 1.3-3 3.1-3 5.5 0.1 2.2 1.7 4.1 4 4.4 2 0.3 3.6-0.4 4.9-1.8 0.3-0.4 0.5-0.7 0.8-1.1-1 0-2.3 0-5.6 0-0.6 0-0.8-0.4-0.6-0.9 0.4-0.8 1.1-2.3 1.5-3.1 0.1-0.1 0.3-0.4 0.8-0.4 1.4 0 6.9 0 10.6 0-0.1 0.7-0.1 1.5-0.2 2.3-0.3 2-1.1 3.9-2.4 5.6-2.1 2.7-4.8 4.4-8.3 4.8-2.9 0.4-5.5-0.1-7.8-1.8q-3.3-2.4-3.7-6.4c-0.4-3.1 0.5-5.9 2.4-8.4 2.1-2.6 4.8-4.3 8.2-4.9 2.7-0.5 5.4-0.2 7.7 1.4 1.6 1 2.7 2.4 3.4 4 0.2 0.3 0 0.4-0.3 0.5z"/><path fill-rule="evenodd" class="M" d="m122 261.9c-2.6 0-5-0.8-7.1-2.5-1.7-1.5-2.8-3.3-3.1-5.5-0.5-3.2 0.4-6.1 2.3-8.6 2.2-2.8 4.7-4.2 8.2-4.8 3-0.5 5.8-0.2 8.3 1.4 2.3 1.6 3.7 3.7 4.1 6.4 0.5 3.9-0.6 7-3.3 9.7-2 1.9-4.3 3.1-7 3.7-0.8 0.1-1.6 0.1-2.4 0.2zm7-11.5c-0.1-0.4-0.1-0.7-0.1-1-0.5-2.8-3.2-4.4-6-3.8-2.7 0.6-4.4 2.3-5.1 5-0.5 2.2 0.6 4.5 2.7 5.4 1.6 0.7 3.2 0.6 4.8-0.2 2.3-1.1 3.5-3 3.7-5.4z"/><path class="N" d="m135.5 249c0.1 1.1 1.2 0.6 1.6 0.3 0.5-0.4 0.6-0.1 0.7-0.7q0-0.2 0-0.3 0-0.2 0-0.4 0-0.1 0-0.3 0-0.1 0-0.3-0.2 0-0.5 0-0.3 0-0.5 0.1-0.3 0.1-0.5 0.2-0.3 0.1-0.5 0.2c-0.3 0.3-0.9 0.9-0.3 1.2"/><path fill-rule="evenodd" class="O" d="m136.1 249.8q-0.1 0-0.1 0 0 0-0.1 0 0 0-0.1 0 0 0 0-0.1-0.1 0-0.2-0.1-0.1 0-0.1-0.1 0-0.1-0.1-0.2 0-0.1 0-0.2 0 0-0.1-0.1 0 0-0.1-0.1 0 0 0-0.1 0 0-0.1-0.1 0.1-0.1 0.1-0.3 0.1-0.1 0.1-0.2 0.1-0.1 0.2-0.2 0.1-0.1 0.2-0.2 0.3-0.2 0.5-0.3 0.3-0.1 0.5-0.2 0.3-0.1 0.6-0.1 0.3 0 0.6 0v0.1q0 0.1 0 0.3 0 0.1 0 0.2 0 0.1 0 0.3 0 0.1 0 0.2v0.3c0 0.4-0.1 0.5-0.3 0.6q-0.1 0-0.1 0-0.1 0-0.1 0-0.1 0.1-0.1 0.1 0 0-0.1 0-0.1 0.1-0.2 0.2-0.2 0.1-0.3 0.1-0.2 0.1-0.3 0.1-0.2 0.1-0.3 0.1zm1.4-2.4q-0.2 0-0.4 0.1-0.2 0-0.4 0.1-0.3 0-0.5 0.1-0.2 0.1-0.4 0.2-0.1 0.1-0.1 0.2-0.1 0.1-0.2 0.2 0 0.1-0.1 0.2 0 0.1 0 0.2 0 0.1 0 0.1 0 0 0 0.1 0.1 0 0.1 0 0 0 0.1 0.1 0 0.1 0 0.2 0 0 0.1 0.1 0 0.1 0 0.1 0.1 0.1 0.2 0.1 0.1 0.1 0.3 0 0.2 0 0.3 0 0.2-0.1 0.3-0.1 0.2-0.1 0.3-0.2 0-0.1 0.1-0.1 0 0 0.1 0 0-0.1 0.1-0.1 0 0 0.1 0c0.1-0.1 0.2-0.1 0.2-0.4v-0.3q0-0.1 0-0.2 0-0.2 0-0.3 0-0.1 0-0.2 0-0.1 0-0.2h-0.2z"/><path class="P" d="m135.5 249q0.1 0 0.1 0 0.1 0 0.1-0.1 0.1 0 0.2 0 0-0.1 0-0.1"/><path class="O" d="m135.5 249.1q0 0-0.1 0 0 0 0-0.1 0 0 0 0 0-0.1 0-0.1h0.1q0.1 0 0.1 0 0 0 0.1-0.1 0 0 0.1 0 0 0 0-0.1 0.1 0 0.1 0 0 0 0.1 0 0 0 0 0.1 0 0 0 0.1 0 0-0.1 0 0 0.1-0.1 0.1 0 0.1-0.1 0.1-0.1 0-0.1 0h-0.1z"/><path class="Q" d="m138 236.1c-4.1-1.2-1-6.5 2.3-4.3z"/><path fill-rule="evenodd" class="O" d="m138.1 236.2h-0.1c-1.2-0.4-1.9-1.1-2.1-2q0-0.4 0.1-0.8 0-0.3 0.2-0.7 0.2-0.3 0.4-0.6 0.3-0.3 0.6-0.5 0.4-0.2 0.8-0.3 0.4-0.1 0.8-0.1 0.4 0 0.8 0.1 0.4 0.2 0.8 0.4v0.1zm0.6-4.9q-0.2 0-0.3 0.1-0.2 0-0.4 0-0.1 0.1-0.3 0.2-0.2 0-0.3 0.1-0.3 0.2-0.6 0.5-0.2 0.2-0.4 0.6-0.1 0.3-0.2 0.6 0 0.4 0 0.7c0.1 0.9 0.8 1.5 1.8 1.8l2.2-4.1q-0.2-0.1-0.3-0.2-0.2-0.1-0.4-0.1-0.2-0.1-0.4-0.1-0.2-0.1-0.4-0.1z"/><path class="Q" d="m156.6 231.4c3.3-2.3 6.2 2.8 2.4 4.2z"/><path fill-rule="evenodd" class="O" d="m159 235.7l-2.6-4.4h0.1q0.3-0.3 0.7-0.4 0.4-0.2 0.8-0.2 0.4 0 0.8 0.1 0.4 0 0.7 0.2 0.4 0.2 0.6 0.5 0.3 0.3 0.5 0.6 0.2 0.4 0.2 0.8 0.1 0.3 0.1 0.7c-0.1 0.6-0.4 1.6-1.9 2.1zm-2.2-4.3l2.3 4q0.4-0.1 0.6-0.2 0.3-0.2 0.5-0.4 0.3-0.3 0.4-0.6 0.1-0.3 0.2-0.6 0-0.4-0.1-0.7-0.1-0.4-0.2-0.7-0.2-0.3-0.4-0.6-0.3-0.2-0.6-0.4-0.3-0.2-0.7-0.3-0.3-0.1-0.7 0-0.4 0-0.7 0.1-0.3 0.1-0.6 0.4z"/><path class="N" d="m157.3 262.4c0.8 0.5 2.3 2.1 1.1 2.8-1.2 1.2-1.9-1.2-3-1.5q0.2-0.2 0.4-0.4 0.2-0.3 0.4-0.4 0.3-0.2 0.5-0.3 0.3-0.1 0.6-0.2z"/><path fill-rule="evenodd" class="O" d="m157.7 265.6c-0.5 0-0.9-0.4-1.3-0.9q-0.1-0.1-0.2-0.3-0.1-0.1-0.2-0.2-0.2-0.1-0.3-0.2-0.1-0.1-0.3-0.2h-0.1l0.1-0.2q0.1-0.2 0.3-0.4 0.2-0.3 0.5-0.4 0.2-0.2 0.5-0.3 0.3-0.2 0.6-0.2c0.6 0.3 1.7 1.3 1.7 2.2q0 0.1-0.1 0.2 0 0.1-0.1 0.2 0 0.2-0.1 0.2-0.1 0.1-0.3 0.2 0 0.1-0.1 0.1-0.1 0.1-0.2 0.1-0.1 0.1-0.2 0.1-0.1 0-0.2 0zm-2.1-1.9q0.1 0.1 0.3 0.2 0.1 0.1 0.2 0.2 0.2 0.1 0.3 0.2 0.1 0.1 0.2 0.3 0.1 0.1 0.2 0.3 0.1 0.1 0.3 0.2 0.1 0.1 0.3 0.2 0.1 0.1 0.3 0.1 0.1 0 0.2 0 0 0 0.1 0 0.1-0.1 0.2-0.1 0-0.1 0.1-0.1 0.1-0.1 0.1-0.1 0.1-0.1 0.2-0.2 0-0.1 0.1-0.2 0-0.1 0-0.2c0-0.7-0.9-1.6-1.5-2q-0.2 0.1-0.5 0.2-0.2 0.1-0.4 0.2-0.2 0.2-0.4 0.4-0.2 0.2-0.3 0.4z"/><path class="O" d="m158.4 265.4q0 0 0 0-0.1 0-0.1-0.1 0 0 0 0 0 0 0 0 0 0-0.1-0.1 0 0 0-0.1 0 0 0-0.1-0.1 0-0.1-0.1 0-0.1 0-0.2-0.1-0.1-0.1-0.2-0.1-0.1-0.1-0.1-0.1-0.1-0.2-0.2 0 0 0-0.1 0 0 0 0 0.1-0.1 0.1-0.1 0.1 0 0.1 0.1 0.1 0 0.1 0.1 0.1 0.1 0.1 0.2 0.1 0.1 0.1 0.2 0.1 0.1 0.1 0.2 0 0.1 0.1 0.1 0 0.1 0 0.1 0 0 0 0.1 0.1 0 0.1 0.1 0 0 0 0 0 0 0 0.1 0 0 0 0-0.1 0-0.1 0z"/><path class="N" d="m142.3 264.2c-1 0.1-1.6 1-2.4 1.5q-0.1 0.1-0.3 0.1-0.2 0.1-0.3 0-0.2 0-0.3-0.1-0.2-0.1-0.2-0.3-0.1 0-0.1 0-0.1 0-0.1 0 0-0.1-0.1-0.1 0 0 0-0.1c-0.7-1.1 0.7-1.9 1.5-2.5 1.1-0.2 1.7 0.7 2.3 1.5z"/><path fill-rule="evenodd" class="O" d="m139.4 265.9q0 0 0 0-0.1 0-0.1 0 0 0 0 0-0.1 0-0.1 0-0.1 0-0.1 0-0.1-0.1-0.2-0.1 0-0.1-0.1-0.2 0 0-0.1-0.1 0 0-0.1 0 0 0 0 0-0.1-0.1-0.1-0.1 0 0-0.1 0c-0.7-1.1 0.5-2 1.3-2.5l0.3-0.2c1.1-0.2 1.8 0.7 2.3 1.4l0.2 0.2h-0.2q-0.2 0.1-0.4 0.1-0.2 0.1-0.4 0.2-0.2 0.1-0.4 0.3-0.1 0.1-0.3 0.2-0.1 0.1-0.2 0.2-0.1 0.1-0.2 0.2-0.1 0.1-0.2 0.1-0.1 0.1-0.2 0.2-0.1 0-0.2 0.1 0 0-0.1 0-0.1 0-0.1 0-0.1 0-0.2 0zm-0.7-0.6q0 0 0 0 0.1 0 0.1 0 0 0 0 0 0 0 0 0h0.1v0.1q0 0 0.1 0.1 0 0 0.1 0.1 0 0 0.1 0.1 0 0 0.1 0 0.1 0 0.1 0 0.1 0 0.2 0 0.1 0 0.1-0.1 0.1 0 0.2 0 0.1-0.1 0.2-0.2 0.1 0 0.2-0.1 0.1-0.1 0.2-0.2 0.1-0.1 0.2-0.2 0.2-0.1 0.3-0.2 0.2-0.1 0.4-0.3 0.1-0.1 0.3-0.1 0.2-0.1 0.4-0.2c-0.5-0.7-1.2-1.4-2.1-1.3l-0.2 0.2c-0.8 0.6-1.8 1.3-1.2 2.2q0 0 0 0 0 0 0 0 0 0.1 0.1 0.1 0 0 0 0z"/><path fill-rule="evenodd" class="O" d="m138.8 265.5q0.1 0 0.1 0 0 0 0-0.1 0 0 0 0 0-0.1 0-0.2 0.1-0.1 0.1-0.2 0 0 0.1-0.1 0-0.1 0.1-0.2 0 0 0.1-0.1 0 0 0-0.1 0 0 0.1-0.1 0 0 0-0.1 0 0 0-0.1 0 0 0 0-0.1 0-0.1 0 0 0-0.1 0 0 0.1 0 0.1 0 0.1-0.1 0.1 0 0.1 0 0.1 0 0.1-0.1 0.1 0 0.1-0.1 0.2-0.1 0.1-0.1 0.2 0 0.1-0.1 0.2 0 0.1 0 0.2 0 0 0 0 0 0 0 0.1 0 0 0 0 0.1 0 0.1 0 0 0 0 0zm0.2-32.5c-0.5-0.2-1.1-0.4-1.4 0.3-0.4 0.6 0 1 0.6 1.3zm19.1 1c0.6-0.3 1-0.7 0.6-1.3-0.3-0.7-0.9-0.5-1.4-0.3z"/><path class="N" d="m161.9 248.9c0 1.1-1.1 0.6-1.6 0.2-0.5-0.3-0.6 0-0.7-0.7q0-0.1 0-0.3 0-0.1 0-0.3 0-0.2 0-0.3 0-0.2 0-0.3 0.3-0.1 0.5 0 0.3 0 0.6 0.1 0.2 0 0.5 0.1 0.2 0.1 0.5 0.3c0.3 0.2 0.8 0.9 0.2 1.1"/><path fill-rule="evenodd" class="O" d="m161.4 249.6q-0.2 0-0.3 0-0.2 0-0.3-0.1-0.2 0-0.3-0.1-0.1-0.1-0.2-0.2-0.1 0-0.1 0-0.1 0-0.1-0.1-0.1 0-0.1 0 0 0-0.1 0c-0.2-0.1-0.3-0.2-0.3-0.6v-0.3q0-0.1-0.1-0.2 0-0.2 0-0.3 0-0.1 0-0.2 0-0.2 0-0.3v-0.1h0.1q0.3-0.1 0.6 0 0.3 0 0.5 0.1 0.3 0 0.6 0.1 0.2 0.2 0.5 0.3 0.1 0.1 0.2 0.2 0.1 0.1 0.1 0.2 0.1 0.2 0.2 0.3 0 0.1 0 0.3 0 0 0 0.1 0 0-0.1 0.1 0 0 0 0.1-0.1 0-0.1 0 0 0.1-0.1 0.2 0 0.1 0 0.2-0.1 0.1-0.1 0.2-0.1 0-0.2 0.1 0 0-0.1 0 0 0-0.1 0 0 0-0.1 0 0 0 0 0zm-1.7-2.3q0 0.1 0 0.2 0 0.1 0 0.2 0 0.1 0 0.2 0 0.1 0 0.2v0.3c0 0.4 0.1 0.4 0.2 0.4q0.1 0.1 0.1 0.1 0.1 0 0.1 0 0.1 0.1 0.1 0.1 0.1 0 0.1 0 0.1 0.1 0.3 0.2 0.1 0.1 0.3 0.2 0.1 0 0.3 0 0.2 0 0.3 0 0.1 0 0.2-0.1 0-0.1 0-0.1 0.1-0.1 0.1-0.2 0 0 0-0.1v-0.1q0.1 0 0.1 0 0-0.1 0.1-0.1 0 0 0-0.1 0 0 0 0 0-0.1 0-0.3-0.1-0.1-0.1-0.2-0.1-0.1-0.2-0.1 0-0.1-0.1-0.2-0.2-0.1-0.5-0.3-0.2-0.1-0.4-0.1-0.3-0.1-0.5-0.1-0.3 0-0.5 0z"/><path class="P" d="m161.9 248.9q0 0-0.1-0.1-0.1 0-0.1 0-0.1 0-0.1-0.1-0.1 0-0.1 0"/><path class="O" d="m161.9 249h-0.1q0 0-0.1-0.1-0.1 0-0.1 0-0.1-0.1-0.1-0.1-0.1-0.1-0.1-0.1 0 0 0-0.1 0 0 0-0.1 0.1 0 0.1 0 0.1 0 0.1 0.1 0 0 0 0 0.1 0.1 0.1 0.1 0.1 0 0.1 0 0 0 0.1 0.1h0.1q0 0 0 0 0.1 0 0.1 0.1-0.1 0-0.1 0.1 0 0-0.1 0z"/><path class="Q" d="m148.3 229.2c4.2 0 8.1 0.5 10.1 4.6 1.9 4.5 1.2 9.3 1.5 14.1 0.2 4 0.8 8.7-1.1 12.5-2 4-7 5-11.1 4.8-3.2-0.1-7.1-1.1-8.9-4.1-2.2-3.4-1.1-8.5-1-12.4 0.2-4.5-1.2-9.1 0.3-13.5 1.5-4.6 5.7-5.7 10.2-6z"/><path fill-rule="evenodd" class="O" d="m148.4 265.4h-0.7q-0.6-0.1-1.3-0.1-0.6-0.1-1.3-0.2-0.6-0.2-1.2-0.3-0.6-0.2-1.2-0.4-0.6-0.3-1.2-0.6-0.6-0.3-1.1-0.7-0.5-0.4-0.9-0.9-0.5-0.5-0.8-1c-1.7-2.8-1.4-6.6-1.2-10q0.1-1.3 0.2-2.5 0-0.6 0-1.2 0-0.6 0-1.2-0.1-0.6-0.1-1.2-0.1-0.6-0.1-1.2c-0.3-2.9-0.5-5.8 0.5-8.7q0.2-0.8 0.6-1.5 0.4-0.7 0.9-1.3 0.5-0.6 1.1-1.1 0.7-0.4 1.4-0.8c1.6-0.7 3.5-1.2 6.3-1.4 4.1 0 8.1 0.5 10.2 4.6 1.4 3.3 1.4 6.8 1.4 10.2 0 1.3 0 2.6 0.1 3.9 0 0.4 0 0.8 0.1 1.2 0.2 3.8 0.5 8-1.2 11.4-2.2 4.3-7.6 5-10.5 5zm-0.1-36.1c-4.3 0.3-8.6 1.3-10.1 5.9-1 2.9-0.7 5.8-0.5 8.7q0.1 0.6 0.1 1.2 0.1 0.6 0.1 1.2 0 0.6 0 1.2 0 0.6 0 1.2 0 1.2-0.2 2.4c-0.2 3.4-0.5 7.2 1.2 9.9 0.7 1.2 3 3.9 8.8 4.1 2.5 0.1 8.7-0.2 11-4.8 1.7-3.4 1.4-7.6 1.1-11.3 0-0.4 0-0.8 0-1.2-0.1-1.2-0.1-2.6-0.1-3.8 0-3.4-0.1-7-1.4-10.2q-0.3-0.6-0.7-1.2-0.5-0.6-1-1.1-0.6-0.5-1.2-0.8-0.6-0.4-1.3-0.6-0.7-0.3-1.4-0.4-0.7-0.2-1.5-0.3-0.7-0.1-1.4-0.1-0.8-0.1-1.5 0z"/><path class="R" d="m149 234.8c0.8 4.3 7.9 3.2 6.9-1.2-0.9-4-7.1-2.9-6.9 1.2z"/><path fill-rule="evenodd" class="O" d="m152.4 237.6q-0.1 0-0.3 0-0.2 0-0.3 0-0.2-0.1-0.4-0.1-0.1-0.1-0.3-0.1-0.4-0.2-0.8-0.4-0.4-0.3-0.6-0.6-0.3-0.4-0.5-0.8-0.2-0.4-0.3-0.8 0-0.4 0.1-0.7 0-0.4 0.1-0.7 0.1-0.3 0.3-0.6 0.2-0.3 0.4-0.6 0.3-0.2 0.5-0.4 0.3-0.2 0.6-0.3 0.3-0.2 0.6-0.3 0.3-0.1 0.6-0.1 0.3-0.1 0.6-0.1 0.4 0 0.6 0.1 0.3 0 0.6 0.1 0.3 0.1 0.6 0.3 0.3 0.1 0.5 0.4 0.3 0.2 0.5 0.5 0.1 0.2 0.3 0.5 0.1 0.3 0.2 0.7 0.1 0.4 0.1 0.8 0 0.4-0.1 0.8-0.1 0.4-0.4 0.8-0.2 0.4-0.5 0.6-0.3 0.3-0.6 0.5-0.3 0.1-0.7 0.3-0.3 0.1-0.7 0.1-0.3 0.1-0.7 0.1zm-3.3-2.8q0.1 0.4 0.3 0.8 0.1 0.3 0.4 0.7 0.3 0.3 0.6 0.5 0.4 0.3 0.8 0.4 0.5 0.2 1 0.2 0.5 0 1-0.1 0.5-0.1 0.9-0.3 0.5-0.2 0.9-0.5 0.3-0.3 0.5-0.6 0.2-0.4 0.3-0.7 0.1-0.4 0.1-0.8 0-0.4-0.1-0.8-0.1-0.6-0.5-1.1-0.3-0.5-0.8-0.8-0.5-0.3-1.1-0.4-0.6-0.2-1.2 0-0.7 0-1.2 0.3-0.6 0.3-1 0.8-0.5 0.5-0.7 1.1-0.2 0.6-0.2 1.3z"/><path class="R" d="m140.5 235.5c1 3.8 7.1 2.8 6.8-1-0.2-4.6-7.7-3.7-6.8 1z"/><path fill-rule="evenodd" class="O" d="m143.8 238q-0.3 0-0.5-0.1-0.2 0-0.4 0-0.3-0.1-0.5-0.2-0.2-0.1-0.4-0.2-0.3-0.1-0.5-0.3-0.3-0.3-0.5-0.5-0.2-0.3-0.3-0.6-0.2-0.3-0.3-0.6-0.1-0.5-0.1-0.9 0.1-0.5 0.2-0.9 0.1-0.4 0.4-0.8 0.3-0.4 0.6-0.7 0.4-0.3 0.9-0.5 0.5-0.2 1.1-0.3 0.5 0 1.1 0 0.5 0.1 1 0.3 0.4 0.2 0.7 0.5 0.4 0.3 0.6 0.6 0.3 0.4 0.4 0.8 0.1 0.4 0.1 0.9c0.2 2-1.4 3.2-3 3.4q-0.1 0-0.1 0.1-0.1 0-0.2 0-0.1 0-0.2 0-0.1 0-0.1 0zm-3.2-2.6q0.2 0.6 0.6 1.1 0.3 0.5 0.9 0.9 0.5 0.3 1.1 0.4 0.6 0.1 1.2 0c1.5-0.3 3-1.4 2.9-3.3q0-0.4-0.2-0.8-0.1-0.4-0.3-0.7-0.2-0.4-0.6-0.6-0.3-0.3-0.7-0.5-0.4-0.2-1-0.3-0.5 0-1 0-0.5 0.1-1 0.3-0.4 0.2-0.8 0.5-0.4 0.3-0.6 0.6-0.3 0.4-0.4 0.8-0.1 0.4-0.1 0.8-0.1 0.4 0 0.8z"/><path class="R" d="m149.9 240q0 0.2 0 0.5 0 0.2 0 0.4 0 0.2 0 0.5 0 0.2 0 0.4-0.1 0.1-0.2 0.2 0 0-0.1 0.1-0.1 0-0.2 0.1-0.1 0-0.2 0-0.1 0-0.2 0-0.2-0.1-0.3-0.2-0.1 0-0.1-0.1-0.1-0.1-0.2-0.2 0-0.3 0-0.6 0-0.2 0-0.5 0-0.2 0-0.5 0.1-0.2 0.1-0.5z"/><path fill-rule="evenodd" class="O" d="m149.2 242.3q-0.1 0-0.2-0.1-0.2 0-0.3-0.1-0.1-0.1-0.2-0.2-0.1-0.1-0.1-0.2 0-0.2 0-0.4 0-0.2 0-0.3 0-0.2 0-0.4 0-0.2 0-0.3c0-0.2 0-0.5 0-0.7v-0.2l1.6 0.5v0.1q0 0.3 0 0.6 0 0.1 0.1 0.3 0 0.2 0 0.3 0 0.2 0 0.3-0.1 0.2-0.1 0.3v0.1q0 0-0.1 0.1 0 0.1-0.1 0.1-0.1 0.1-0.2 0.1 0 0-0.1 0l-0.2 0.1zm-0.6-0.7q0 0.1 0.1 0.2 0 0.1 0.1 0.1 0.1 0.1 0.2 0.1 0.1 0.1 0.2 0.1l0.2-0.1q0 0 0.1 0 0 0 0.1-0.1 0.1 0 0.1-0.1 0 0 0.1-0.1 0-0.1 0-0.2 0-0.2 0-0.3 0-0.2 0-0.3 0-0.2 0-0.3 0-0.3 0-0.5l-1.2-0.4q0 0.3 0 0.5-0.1 0.2-0.1 0.4 0 0.1 0 0.3 0 0.2 0 0.3 0 0.2 0 0.4z"/><path class="O" d="m142.2 236c-0.6 0-1-0.5-1-1.2 0-0.6 0.4-1.1 1-1.1 0.6 0 1 0.5 1 1.1 0 0.7-0.4 1.2-1 1.2z"/><path class="R" d="m142.7 235.4c-0.2 0-0.3-0.1-0.3-0.3 0-0.2 0.1-0.3 0.3-0.3 0.1 0 0.2 0.1 0.2 0.3 0 0.2-0.1 0.3-0.2 0.3z"/><path class="O" d="m150.8 235.7c-0.6 0-1-0.5-1-1.1 0-0.6 0.4-1.1 1-1.1 0.6 0 1 0.5 1 1.1 0 0.6-0.4 1.1-1 1.1z"/><path class="R" d="m151.3 235.1c-0.2 0-0.3-0.1-0.3-0.3 0-0.1 0.1-0.3 0.2-0.3 0.2 0 0.3 0.2 0.3 0.3 0 0.2-0.1 0.3-0.3 0.3z"/><path class="R" d="m147 239.9c-0.5 1.1 0.2 3.3 1.5 1.7q-0.1-0.3-0.1-0.5 0-0.3 0-0.5 0-0.3 0.1-0.6 0-0.2 0-0.5z"/><path fill-rule="evenodd" class="O" d="m147.6 242.3q0 0-0.1-0.1 0 0 0 0-0.1 0-0.1 0-0.1 0-0.1 0c-0.5-0.3-0.8-1.5-0.4-2.3v-0.1l1.7-0.4v0.1q0 0.4 0 0.7-0.1 0.2-0.1 0.3 0 0.2 0 0.4 0 0.1 0 0.3 0 0.2 0.1 0.3v0.1q-0.1 0.1-0.2 0.3-0.1 0.1-0.2 0.2-0.2 0-0.3 0.1-0.1 0-0.3 0.1zm-0.6-2.3c-0.2 0.7 0 1.7 0.4 2 0.3 0.2 0.7-0.1 0.9-0.5q0-0.1 0-0.3 0-0.2 0-0.3 0-0.2 0-0.4 0-0.1 0-0.3 0-0.3 0.1-0.5z"/><path class="N" d="m147.1 237.8q-0.3 0.1-0.6 0.2-0.2 0.2-0.4 0.5-0.2 0.3-0.2 0.6 0 0.3 0.1 0.6c0.6 1 1.9-0.1 2.7 0 0.9 0 1.7 1 2.4 0.2 0.8-0.9-0.4-1.8-1.3-2.2z"/><path fill-rule="evenodd" class="S" d="m150.4 240.3q-0.1 0-0.2 0-0.1-0.1-0.2-0.1-0.1 0-0.2-0.1-0.1 0-0.2 0-0.1-0.1-0.2-0.1-0.1-0.1-0.2-0.1-0.2 0-0.3-0.1-0.1 0-0.2 0-0.1 0-0.3 0-0.1 0-0.2 0.1-0.1 0-0.2 0-0.2 0.1-0.3 0.1c-0.6 0.2-1.3 0.5-1.8-0.3q0-0.1-0.1-0.2 0-0.2 0-0.4 0-0.1 0-0.3 0.1-0.1 0.1-0.3 0.1-0.1 0.2-0.3 0.2-0.1 0.3-0.2 0.2-0.1 0.3-0.2 0.2 0 0.4-0.1l2.8-0.1c0.7 0.3 1.4 0.8 1.6 1.4q0 0.3-0.1 0.5 0 0.2-0.2 0.4-0.1 0.2-0.3 0.3-0.2 0.1-0.5 0.1zm-1.7-0.7q0.1 0 0.3 0 0.1 0.1 0.2 0.1 0.1 0 0.3 0.1 0.1 0 0.2 0.1c0.5 0.2 0.9 0.4 1.3-0.1q0.1-0.1 0.2-0.1 0-0.1 0-0.2 0.1-0.1 0.1-0.2 0-0.1 0-0.2c-0.1-0.5-0.9-1-1.5-1.3l-2.7 0.1q-0.1 0.1-0.3 0.1-0.1 0.1-0.2 0.2-0.2 0.1-0.3 0.2-0.1 0.1-0.1 0.2-0.1 0.1-0.1 0.3-0.1 0.1-0.1 0.2 0 0.2 0.1 0.3 0 0.1 0.1 0.2c0.3 0.6 0.9 0.4 1.5 0.2q0.1 0 0.3-0.1 0.1 0 0.2-0.1 0.1 0 0.3 0 0.1 0 0.2 0z"/><path class="O" d="m147 237.8c-0.1-1.4 2.7-1.6 3-0.4 0.3 1.2-2.9 1.5-3 0.4z"/><path class="I" d="m81.5 207.5q0.1 0.9 0.4 1.7 0.3 0.8 0.9 1.4 0.7 0.6 1.5 1 0.8 0.3 1.7 0.3h25.4q0.9 0 1.7-0.3 0.8-0.4 1.5-1 0.6-0.6 0.9-1.4 0.3-0.9 0.3-1.7v-25.5q0-0.9-0.3-1.7-0.3-0.8-0.9-1.4-0.7-0.6-1.5-1-0.8-0.3-1.7-0.3h-25.4q-0.9 0-1.7 0.3-0.8 0.4-1.5 1-0.6 0.6-0.9 1.4-0.4 0.8-0.4 1.7z"/><path fill-rule="evenodd" class="T" d="m101 184.4q0.3 0 0.7 0 0.3 0 0.6 0 0.4 0.1 0.7 0.1 0.4 0.1 0.7 0.1 0.3 0.1 0.5 0.2 0.3 0 0.6 0.1 0.2 0.2 0.5 0.3 0.2 0.1 0.5 0.3 0.2 0.1 0.4 0.3 0.2 0.2 0.4 0.4 0.1 0.2 0.3 0.4 0.1 0.2 0.2 0.5 0.2 0.3 0.3 0.6 0 0.3 0.1 0.6 0.1 0.3 0.1 0.6 0 0.3 0 0.6 0 0.4 0 0.7-0.1 0.3-0.1 0.7-0.1 0.3-0.3 0.6-0.1 0.3-0.3 0.6-0.2 0.3-0.4 0.6-0.3 0.2-0.5 0.4-0.3 0.2-0.6 0.4-0.3 0.2-0.6 0.3 0.4 0.1 0.8 0.3 0.4 0.2 0.8 0.5 0.4 0.2 0.7 0.5 0.3 0.3 0.6 0.7 0.4 0.7 0.6 1.4 0.2 0.8 0.3 1.6 0 0.8-0.1 1.5-0.2 0.8-0.5 1.5-0.2 0.3-0.3 0.6-0.2 0.2-0.4 0.5-0.2 0.2-0.5 0.4-0.2 0.2-0.5 0.4-0.2 0.2-0.5 0.4-0.3 0.1-0.6 0.2-0.3 0.2-0.6 0.3-0.3 0.1-0.6 0.2-0.3 0.1-0.7 0.1-0.3 0.1-0.7 0.1-0.3 0.1-0.6 0.1-0.4 0-0.7 0h-10.1v-20.7zm-0.6 8.4q0.3 0 0.5-0.1 0.3 0 0.6-0.1 0.2 0 0.5-0.2 0.2-0.1 0.4-0.2 0.2-0.2 0.4-0.4 0.1-0.2 0.3-0.5 0.1-0.2 0.1-0.5 0-0.2 0-0.5 0-0.2 0-0.3 0-0.2 0-0.3-0.1-0.2-0.1-0.3-0.1-0.2-0.2-0.3 0-0.1-0.1-0.2-0.1-0.1-0.2-0.2 0-0.1-0.1-0.2-0.1-0.1-0.3-0.1-0.1-0.1-0.2-0.2-0.1 0-0.2-0.1-0.2 0-0.3 0-0.1-0.1-0.3-0.1-0.1 0-0.2 0-0.2-0.1-0.3-0.1-0.2 0-0.3 0-0.2 0-0.3 0h-4.3v4.9zm0.3 8.8q0.1 0 0.3 0 0.1 0 0.3-0.1 0.2 0 0.3 0 0.2 0 0.3-0.1 0.2 0 0.3 0 0.2-0.1 0.3-0.1 0.1-0.1 0.3-0.1 0.1-0.1 0.2-0.2 0.1-0.1 0.2-0.2 0.1-0.1 0.2-0.2 0.1-0.1 0.2-0.2 0.1-0.1 0.2-0.2 0-0.2 0.1-0.3 0-0.2 0.1-0.4 0-0.1 0-0.3 0-0.2 0-0.4 0.1-0.3 0-0.6 0-0.3-0.1-0.6-0.2-0.3-0.3-0.6-0.2-0.2-0.5-0.4-0.2-0.2-0.5-0.4-0.3-0.1-0.6-0.2-0.3-0.1-0.6-0.1-0.3 0-0.7 0h-4.9v5.7z"/><path class="U" d="m352.6 77.7c0 3.7-8.5 6.6-18.9 6.6-10.5 0-19-2.9-19-6.6 0-3.6 8.5-6.6 19-6.6 10.4 0 18.9 3 18.9 6.6z"/><path class="V" d="m352.2 77.7c0 3.5-8.3 6.2-18.5 6.2-10.3 0-18.6-2.7-18.6-6.2 0-3.4 8.3-6.2 18.6-6.2 10.2 0 18.5 2.8 18.5 6.2z"/><path class="U" d="m343 94.2c-3.1 1.9-9.9-4-15.2-13.1-5.2-9-6.9-17.8-3.7-19.7 3.2-1.8 9.9 4.1 15.2 13.1 5.2 9.1 6.9 17.9 3.7 19.7z"/><path class="V" d="m342.8 93.9c-3 1.7-9.5-4.1-14.6-13-5.2-8.8-6.9-17.4-3.9-19.1 3-1.7 9.5 4.1 14.6 12.9 5.2 8.9 6.9 17.5 3.9 19.2z"/><path class="U" d="m343 61.4c3.2 1.9 1.5 10.7-3.7 19.7-5.3 9.1-12 15-15.2 13.1-3.2-1.8-1.5-10.6 3.7-19.7 5.3-9 12.1-14.9 15.2-13.1z"/><path class="V" d="m342.8 61.8c3 1.7 1.3 10.3-3.9 19.1-5.1 8.9-11.6 14.7-14.6 13-3-1.7-1.3-10.3 3.9-19.2 5.1-8.8 11.6-14.6 14.6-12.9z"/><path class="W" d="m333.7 81.1c-1.8 0-3.3-1.5-3.3-3.3 0-1.7 1.5-3.2 3.3-3.2 1.8 0 3.2 1.5 3.2 3.2 0 1.8-1.4 3.3-3.2 3.3z"/><path fill-rule="evenodd" class="I" d="m390.4 123.4h-33.1q-0.8 0-1.5-0.3-0.7-0.3-1.3-0.9-0.5-0.5-0.8-1.3-0.3-0.7-0.4-1.5v-33.1q0.1-0.8 0.4-1.5 0.3-0.7 0.8-1.3 0.6-0.5 1.3-0.8 0.7-0.3 1.5-0.3h33.1q0.8 0 1.5 0.3 0.8 0.3 1.3 0.8 0.6 0.6 0.9 1.3 0.3 0.7 0.3 1.5v33.1q0 0.8-0.3 1.5-0.3 0.8-0.9 1.3-0.5 0.6-1.3 0.9-0.7 0.3-1.5 0.3zm-33.1-38.7q-0.3 0-0.6 0.1-0.3 0.1-0.5 0.4-0.3 0.2-0.4 0.5-0.1 0.3-0.1 0.6v33.1q0 0.3 0.1 0.6 0.1 0.3 0.4 0.6 0.2 0.2 0.5 0.3 0.3 0.1 0.6 0.1h33.1q0.3 0 0.6-0.1 0.3-0.1 0.6-0.3 0.2-0.3 0.3-0.6 0.1-0.3 0.1-0.6v-33.1q0-0.3-0.1-0.6-0.1-0.3-0.3-0.5-0.3-0.3-0.6-0.4-0.3-0.1-0.6-0.1z"/><path class="I" d="m365.4 114.5l2.6-1.6c0.5 0.9 1 1.7 2.1 1.7 1.1 0 1.7-0.4 1.7-2v-11.1h3.3v11.1c0 3.4-2 4.9-4.9 4.9q-0.7 0-1.5-0.1-0.7-0.2-1.4-0.6-0.6-0.4-1.1-1-0.5-0.6-0.8-1.3z"/><path class="I" d="m376.8 114.2l2.7-1.5q0.2 0.4 0.5 0.8 0.4 0.3 0.8 0.6 0.4 0.3 0.9 0.4 0.5 0.1 1 0.1c1.3 0 2.2-0.6 2.2-1.6 0-1.1-0.9-1.5-2.4-2.1l-0.8-0.4c-2.3-1-3.9-2.2-3.9-4.9 0-2.4 1.9-4.2 4.8-4.2q0.7-0.1 1.4 0.1 0.6 0.1 1.3 0.5 0.6 0.3 1.1 0.8 0.5 0.5 0.8 1.1l-2.6 1.7q-0.1-0.3-0.3-0.6-0.2-0.3-0.5-0.5-0.3-0.1-0.6-0.2-0.3-0.1-0.6-0.1-0.3-0.1-0.6 0-0.3 0.1-0.5 0.3-0.2 0.2-0.4 0.5-0.1 0.3-0.1 0.6c0 0.9 0.6 1.3 2 1.9l0.8 0.4c2.8 1.2 4.3 2.4 4.3 5.1 0 2.9-2.3 4.5-5.4 4.5q-0.8 0-1.7-0.2-0.9-0.2-1.7-0.6-0.8-0.4-1.4-1.1-0.6-0.6-1.1-1.4z"/></svg>