<svg version="1.2" xmlns="http://www.w3.org/2000/svg" viewBox="0 0 500 500" width="500" height="500">
	<title>golang-svg</title>
	<style>
		.s0 { fill: #00addf } 
		.s1 { fill: #000000 } 
		.s2 { fill: #ffffff } 
	</style>
	<g id="layer1">
		<path id="path864" class="s0" d="m250 500c-138.3 0-250-111.7-250-250 0-138.2 111.8-249.9 250-249.9 138.3 0 250 111.7 250 249.9 0 138.3-111.8 250-250 250z"/>
		<path id="path4304-4-6" class="s1" d="m491-411.5z"/>
		<path id="path4304-4-2" class="s1" d="m270.7-293.5z"/>
		<path id="path4304-4-0" class="s1" d="m491-293.5z"/>
		<path id="path4304-4-0-6" class="s1" d="m377.3-134.1z"/>
		<path id="path4304-4-9-6" class="s1" d="m484.6-163.5z"/>
		<path id="path4304-4-9-0" class="s1" d="m486.2-413.6z"/>
		<g id="g1157">
			<g id="g1126">
				<g id="g1124">
					<g id="g1122">
						<path id="path1120" class="s2" d="m143.9 231.6c-0.5 0-0.6-0.2-0.4-0.6l2.6-3.3c0.2-0.3 0.8-0.6 1.3-0.6h43.5c0.4 0 0.6 0.4 0.3 0.8l-2.1 3.1c-0.2 0.4-0.8 0.8-1.2 0.8z"/>
					</g>
				</g>
			</g>
			<g id="g1134">
				<g id="g1132">
					<g id="g1130">
						<path id="path1128" class="s2" d="m125.5 242.8c-0.5 0-0.6-0.2-0.4-0.6l2.6-3.3c0.2-0.3 0.8-0.6 1.3-0.6h55.5c0.5 0 0.8 0.4 0.6 0.8l-0.9 2.9c-0.2 0.5-0.7 0.7-1.1 0.7z"/>
					</g>
				</g>
			</g>
			<g id="g1142">
				<g id="g1140">
					<g id="g1138">
						<path id="path1136" class="s2" d="m154.9 254c-0.4 0-0.6-0.3-0.3-0.7l1.7-3c0.2-0.4 0.7-0.8 1.2-0.8h24.3c0.5 0 0.8 0.4 0.8 0.9l-0.3 2.9c0 0.5-0.5 0.8-0.8 0.8z"/>
					</g>
				</g>
			</g>
			<g id="g1155">
				<g id="CXHf1q_2_">
					<g id="g1152">
						<g id="g1146">
							<path id="path1144" class="s2" d="m281.3 229.4c-7.7 2-12.9 3.5-20.5 5.4-1.8 0.5-1.9 0.6-3.5-1.2-1.8-2.1-3.2-3.4-5.7-4.6-7.7-3.8-15.1-2.7-22 1.8-8.3 5.3-12.6 13.2-12.5 23.1 0.2 9.7 6.9 17.8 16.5 19.1 8.3 1.1 15.2-1.8 20.7-8 1.1-1.4 2-2.8 3.3-4.5-4.4 0-9.9 0-23.5 0-2.6 0-3.2-1.6-2.4-3.7 1.6-3.7 4.6-10.1 6.3-13.2 0.3-0.8 1.2-2 3-2 6.2 0 29.1 0 44.3 0-0.2 3.3-0.2 6.6-0.7 9.9-1.4 8.7-4.6 16.8-10 23.8-8.8 11.6-20.2 18.8-34.7 20.7-11.9 1.6-23-0.7-32.7-8-9-6.8-14.2-15.8-15.5-27-1.6-13.3 2.3-25.2 10.3-35.7 8.7-11.3 20.1-18.5 34.1-21 11.5-2.1 22.4-0.8 32.3 5.9 6.4 4.3 11.1 10.1 14.1 17.2 0.7 1.1 0.3 1.7-1.2 2z"/>
						</g>
						<g id="g1150">
							<path id="path1148" fill-rule="evenodd" class="s2" d="m321.6 296.7c-11.1-0.2-21.2-3.4-29.7-10.7-7.2-6.2-11.7-14.1-13.2-23.5-2.2-13.7 1.6-25.9 9.9-36.7 8.9-11.7 19.6-17.8 34.1-20.3 12.4-2.2 24.1-1 34.7 6.2 9.6 6.5 15.5 15.4 17.1 27.1 2.1 16.4-2.6 29.8-14 41.3-8 8.1-17.9 13.2-29.2 15.5-3.3 0.7-6.6 0.8-9.7 1.1zm28.9-49.1c-0.1-1.6-0.1-2.8-0.3-4-2.2-12.1-13.3-18.9-24.8-16.2-11.4 2.5-18.7 9.7-21.3 21.1-2.2 9.5 2.4 19.2 11.1 23.1 6.7 2.9 13.4 2.5 19.9-0.8 9.6-5 14.8-12.8 15.4-23.2z"/>
						</g>
					</g>
				</g>
			</g>
		</g>
	</g>
</svg>