<svg version="1.2" xmlns="http://www.w3.org/2000/svg" viewBox="0 0 500 500" width="500" height="500"><style>.a{fill:#f0db4f}.b{fill:#323330}</style><path class="a" d="m0 0h500v500h-500z"/><path class="b" d="m459.1 380.8c-3.7-22.9-18.6-42-62.6-59.9-15.3-7-32.4-12.1-37.5-23.7-1.8-6.7-2-10.5-0.9-14.6 3.3-13.3 19.1-17.4 31.7-13.6 8.1 2.7 15.7 8.9 20.3 18.9 21.6-14 21.6-13.9 36.6-23.5-5.5-8.6-8.4-12.5-12.1-16.2-12.9-14.5-30.6-21.9-58.9-21.3-4.9 0.6-9.8 1.2-14.7 1.9-14.1 3.5-27.6 10.9-35.5 20.9-23.6 26.8-16.9 73.8 11.9 93.2 28.4 21.3 70.1 26.1 75.4 46 5.2 24.4-17.9 32.3-40.9 29.5-16.9-3.5-26.3-12.1-36.5-27.8-18.7 10.9-18.7 10.9-38 21.9 4.6 10 9.4 14.5 17 23.2 36.3 36.7 126.9 34.9 143.2-20.7 0.6-1.9 5-14.6 1.5-34.2zm-187.3-151h-46.8c0 40.4-0.1 80.5-0.1 120.9 0 25.7 1.3 49.3-2.9 56.5-6.8 14.2-24.6 12.5-32.6 9.7-8.3-4-12.5-9.8-17.3-17.9-1.3-2.3-2.3-4.1-2.7-4.3-12.7 7.8-25.3 15.6-38 23.3 6.3 13 15.7 24.3 27.6 31.6 17.8 10.7 41.8 13.9 66.8 8.2 16.3-4.8 30.4-14.6 37.7-29.6 10.7-19.6 8.4-43.4 8.3-69.6 0.3-42.9 0-85.8 0-128.8z"/></svg>