<svg version="1.2" xmlns="http://www.w3.org/2000/svg" viewBox="0 0 32 32" width="32" height="32"><style>.a{fill:#fff}</style><path fill-rule="evenodd" class="a" d="m30.3 14.8q-0.4-0.3-0.8-0.6c-0.2-0.1-0.5-0.2-0.7-0.2-0.2-0.1-0.7-0.2-0.9-0.4-0.2-0.4-0.4-0.8-0.6-1.2-0.2-0.4-0.4-0.9-0.6-1.3-0.1-0.2-0.2-0.4-0.3-0.6-0.6-1.3-1.6-2.3-2.7-3.1q-0.6-0.4-1.3-0.6c-0.3-0.1-0.6 0-0.9-0.1h-0.2c-0.1 0-0.3-0.2-0.4-0.3-0.3-0.2-0.6-0.3-0.9-0.4-0.1-0.1-0.4-0.2-0.5-0.1q-0.2 0-0.2 0.1c0 0.1 0 0.3 0.1 0.4 0.1 0.2 0.3 0.4 0.5 0.7 0.1 0.2 0.3 0.4 0.4 0.6 0.2 0.5 0.3 1.1 0.5 1.6 0.1 0.2 0.3 0.4 0.4 0.6 0.1 0.1 0.2 0.2 0.3 0.4 0.1 0.1-0.2 0.7-0.2 0.9-0.3 0.7-0.2 1.8 0.1 2.4 0.1 0.2 0.2 0.5 0.4 0.6 0.1 0 0 0 0.1 0 0-0.5 0.1-1 0.2-1.4 0.1-0.2 0.3-0.4 0.5-0.6 0.1 0.1 0.1 0.3 0.1 0.4q0.2 0.4 0.4 0.8 0.4 0.9 1 1.6c0.1 0.2 0.3 0.4 0.5 0.6 0 0 0.1 0.1 0.2 0.2-0.3-0.1-0.5-0.4-0.7-0.6-0.4-0.3-0.9-0.7-1.1-1.2q-0.2-0.3-0.4-0.7c0 0.1 0 0.1-0.1 0.2-0.1 0.5 0 1-0.4 1.2-0.4 0.1-0.8-0.4-0.9-0.6-0.5-0.7-0.6-2-0.3-3 0.1-0.2 0.1-0.5 0.2-0.6 0-0.2-0.1-0.2-0.2-0.3q-0.2-0.3-0.3-0.6c-0.2-0.4-0.4-0.8-0.5-1.2-0.1-0.1-0.1-0.3-0.1-0.5-0.1-0.2-0.3-0.4-0.5-0.6-0.2-0.3-0.8-0.9-0.5-1.5 0.3-0.9 1.6-0.2 2.1 0.1 0.2 0.1 0.3 0.3 0.5 0.3q0.3 0.1 0.6 0.1c0.4 0.1 0.8 0.1 1.2 0.3 1.5 0.9 2.5 1.9 3.4 3.4 0.2 0.3 0.3 0.6 0.5 1 0.2 0.5 0.4 1 0.7 1.5 0.1 0.3 0.2 0.5 0.4 0.7 0 0.1 0.2 0.1 0.3 0.2 0.3 0.1 0.7 0.3 0.9 0.4 0.6 0.4 1.1 0.7 1.5 1.1 0.2 0.2 0.3 0.4 0.5 0.6q-0.3 0.1-0.5 0.2c-0.3 0-0.6 0-0.9 0.1-0.2 0.1-0.4 0.1-0.6 0.1v0.1c0.2 0.3 0.8 0.6 1.1 0.8q0.5 0.3 0.9 0.9 0.1 0.1 0.3 0.2c0 0.1 0 0.2 0.1 0.3-0.1 0-0.2-0.1-0.3-0.2-0.2-0.1-0.4-0.3-0.6-0.4-0.3-0.2-0.7-0.4-1.1-0.6q-0.2-0.2-0.5-0.4c-0.2-0.1-0.4-0.4-0.5-0.5 0-0.1-0.1-0.2-0.1-0.3 0-0.2 0.2-0.2 0.3-0.2 0.5-0.2 1-0.3 1.8-0.3-0.1-0.2-0.5-0.4-0.7-0.5zm-22.6 10.4h-1.2q-0.1-3.2-0.4-5.9l-1.9 5.9h-0.9l-1.9-5.9q-0.2 2.6-0.3 5.9h-1.1q0.1-4 0.5-7.4h1.6l1.8 5.4 1.8-5.4h1.4q0.5 4 0.6 7.4zm5.3-5.5q-0.7 4.1-1.9 6-1 1.4-2.2 1.4-0.3 0-0.7-0.2v-0.6q0.2 0 0.5 0 0.5 0 0.9-0.3 0.4-0.4 0.4-0.8 0-0.3-0.3-1.3l-1.4-4.2h1.2l1 3.2q0.3 1 0.3 1.5 0.8-2.2 1.1-4.7zm16.4 5.5h-3.5v-7.4h1.2v6.5h2.3zm-4.9 1l-1.8-1.1q-0.4 0.2-0.9 0.2-1.4 0-2.1-0.9-0.8-0.9-0.8-2.8 0-2 0.9-3 0.8-0.9 2.2-0.9 2.8 0 2.8 3.6 0 2-0.8 3-0.2 0.2-0.4 0.4l1.4 0.6c0 0-0.5 0.9-0.5 0.9zm-3.9-2.5q0.4 0.7 1.3 0.7 1.7 0 1.7-2.9 0-1.5-0.5-2.3-0.4-0.6-1.3-0.6-1.7 0-1.6 2.8-0.1 1.6 0.4 2.3zm-2.2-0.6q0 0.9-0.7 1.5-0.7 0.6-1.8 0.6-1.1 0-2.1-0.6l0.3-0.7q0.8 0.5 1.6 0.5 0.6 0 1-0.3 0.4-0.3 0.4-0.9 0-0.6-0.9-1.1c-0.5-0.3-1.5-0.9-1.5-0.9-0.6-0.4-0.8-0.8-0.8-1.5q0-0.9 0.6-1.5 0.6-0.5 1.6-0.5 1 0 1.9 0.5l-0.3 0.7q-0.7-0.4-1.4-0.4-0.6 0-0.9 0.3-0.3 0.3-0.3 0.7 0 0.7 0.9 1.2c0.5 0.2 1.5 0.8 1.5 0.8 0.6 0.5 0.9 0.9 0.9 1.6zm3.7-15.3c0 0 0 0.1 0.1 0.1q0 0.4-0.2 0.5-0.1-0.2-0.3-0.4c0-0.1-0.2-0.3-0.2-0.4h-0.1q0.2 0 0.4 0c0.1 0 0.2 0.1 0.3 0.2z"/></svg>