<svg version="1.2" xmlns="http://www.w3.org/2000/svg" viewBox="0 0 701 598" width="701" height="598"><style>.a{fill:#f2f2f2}.b{fill:#ffb6b6}.c{fill:#2f2e41}.d{fill:#e6e6e6}.e{fill:#3f3d56}.f{fill:#dfba57}.g{fill:#ccc}.h{fill:#cacaca}</style><path class="a" d="m618.4 595.4v-0.7c0.2-5.8 1-11.6 2.4-17.2 1.4-5.7 3.4-11.2 6-16.4 2.6-5.2 5.7-10.1 9.4-14.7 3.6-4.5 7.8-8.6 12.3-12.3q1.9-1.5 4-2.9 2-1.4 4.1-2.7 2.1-1.2 4.3-2.4 2.2-1.1 4.4-2.1l0.6-0.3 0.1 0.7c1.1 7.3 3 14.9 3.8 18.2l5.8-22.4 0.6-0.2q2.2-0.6 4.5-0.6 2.3 0 4.5 0.7 2.1 0.7 4 2 1.9 1.3 3.3 3.1 1.5 1.8 2.4 4 0.9 2.1 1.1 4.4 0.2 2.4-0.3 4.6-0.5 2.3-1.6 4.4c-1.3 2.4-2.6 5.1-3.9 7.6-4.4 8.6-8.9 17.6-15.5 24.5-2.5 2.6-5.3 4.9-8.3 6.9-3 2-6.3 3.6-9.7 4.9-3.3 1.2-6.9 2.1-10.4 2.6-3.6 0.5-7.2 0.6-10.8 0.3z"/><path class="b" d="m546.8 585.1h-10l-4.8-38.6h14.8v38.6z"/><path class="c" d="m547.1 595.5h-30.7v-0.4c0-1.6 0.3-3.1 0.9-4.6 0.6-1.4 1.5-2.7 2.6-3.8 1.1-1.2 2.4-2 3.9-2.6 1.4-0.6 3-0.9 4.5-0.9l5.7-4.3 10.4 4.3h2.7z"/><path class="b" d="m650.2 556.9l-7.9 6.1-27.4-27.5 11.7-9 23.6 30.4z"/><path class="c" d="m656.9 564.9l-24.3 18.9-0.2-0.3c-1-1.3-1.7-2.7-2.1-4.2-0.4-1.5-0.5-3.1-0.3-4.7 0.2-1.5 0.7-3 1.4-4.4 0.8-1.3 1.9-2.5 3.1-3.5l1.8-6.8 10.9-3.1 2.1-1.6z"/><path class="c" d="m607 370.4c0 0-0.7 10.4-1.5 25.3-0.2 2.5 0.6 5.1 0.5 7.8-0.1 1.8-1.2 3.5-1.3 5.3-0.1 2 1.4 3.7 1.3 5.7-0.1 2-1.8 4.2-1.9 6.2-1.1 21.7-5.1 47.6-1.1 54.8 2 3.6 32 53 32 53 0 0-14 21-18 14-5.3-9.2-46-52.5-46-60.8 0-8.2-9.4-70-9.4-70l-6.6 36.6-3 7.2 0.9 4.3-1.9 5.7-0.1 5.7-1.9 10.5c0 0 5.7 82.3 2.5 84.6-3.2 2.3-18.8 6.4-20.7 2.3-1.8-4.2-8.8-85.9-8.8-85.9 0 0-1.9-37.4-4-72.2-0.1-2-1.5-4.5-1.6-6.4-0.2-2.4 0.7-5.4 0.6-7.6-0.1-2.6-1.3-4.4-1.4-6.8-0.8-19-1-34 0.6-36.3 4.6-6.9 8.7-12.4 8.7-12.4 0 0 65.6-16 82.1 4.6z"/><path class="d" d="m548 173.5l15.8-0.9 11.9 6.5 33.2 187.7c0 0-33.9 15.7-54.9 9.7-21-6-43.1-5.7-43.1-5.7l16.1-179.3 13-12z"/><path class="e" d="m574.4 177.5l24.5 10c1.8 0.1 3.7 0.5 5.4 1.2 1.7 0.7 3.3 1.7 4.7 2.9 1.5 1.2 2.6 2.7 3.6 4.3 0.9 1.6 1.5 3.4 1.9 5.2l-1.7 48.4-8.8 23 6.3 52.4-3.3 6.6 2.8 6.7c-4.1 6.8-3.3 15.7-0.8 25.3h-3l-6-1c0 0-13.2 4.6-15.9-11.9-7.1-43.1-11.1-24.1-11.1-24.1l-3.5-133.8z"/><path class="e" d="m541 177.5l-22.9 24c-1.8 0.1-3.7 0.5-5.4 1.2-1.7 0.7-3.3 1.7-4.7 2.9-1.5 1.2-2.6 2.7-3.6 4.3-0.9 1.6-1.5 3.4-1.9 5.2l9.5 74.4-4.4 28.5 2.4 6.5-1.8 7.3 2.8 6.7-2 9 3 13 15-4-0.1-10.7 4-145z"/><path class="b" d="m464.7 300.8l-31.1 22.6c-2.5 0.1-4.6 1.5-5.7 3.7-1.1 2.1-1 4.7 0.3 6.8 1.4 2 3.7 3.2 6.1 3.1 2.4-0.2 4.6-1.6 5.7-3.8l42.4-22.6z"/><path class="e" d="m508 205.5c-5.9 2.7-20.5 72.7-24.8 74.1-4.3 1.5-2.7 1.3-3.3 2.5-0.6 1.3-0.7 6.8-4.9 7.5-4.1 0.6-25.9 20.5-25.9 20.5l5.6 18.4c0 0 41.9-24 53.4-37.2 11.6-13.3 17.8-81.5 17.8-81.5l1.2-6.8c0 0-13.2-0.2-19.1 2.5z"/><path class="b" d="m602 291.5l-27.8 26.7c-2.4 0.4-4.4 2.1-5.2 4.4-0.7 2.3-0.3 4.9 1.3 6.7 1.6 1.9 4.1 2.7 6.5 2.2 2.4-0.4 4.3-2.1 5.1-4.4l38.9-28.2z"/><path class="e" d="m606 211.5c-5.5 3.5 15.4 54.5 11.3 56.6-4 2-2.4 1.6-2.9 2.9-0.4 1.3 0.2 6.8-3.8 8-4 1.2-22.8 23.9-22.8 23.9l8 17.5c0 0 38.2-29.5 47.8-44.2 9.7-14.7 3.4-19.7 3.4-19.7-11.9-25.4-23.1-66.7-40-64 0 0 4.5 15.5-1 19z"/><path class="b" d="m551.4 169.5c-14.8 0-26.8-11.9-26.8-26.8 0-14.8 12-26.8 26.8-26.8 14.8 0 26.8 12 26.8 26.8 0 14.9-12 26.8-26.8 26.8z"/><path class="c" d="m578.5 160c0 0-5.9 1.6-9.3 2.5 0.2-2.5 1.3-4.9 1.8-7.4 0.6-2.5 0.5-5.5-1.4-7.2-1.8-1.8-5.7-1.1-6 1.4q-2.4-5-4.7-10.1c-4.5 9.3-13.7 1.4-23.8 3.7-5.1 1.2-11.5 0.7-14.2-3.8q0.6-0.5 1.1-1 0.5-0.5 1-1.1 0.5-0.6 0.9-1.2 0.4-0.6 0.8-1.2-0.6 0.2-1.2 0.3-0.6 0.1-1.2 0.2-0.6 0.1-1.2 0.1-0.6 0-1.2 0 0-1.2 0.3-2.4 0.3-1.2 0.9-2.2 0.6-1.1 1.4-2 0.8-0.9 1.8-1.5c1.5-1-2.1-4.3-0.9-5.5 2.6-2.4 4.4-0.8 5.9-4q0.7-1.5 1.8-2.7 1.2-1.2 2.6-2 1.4-0.9 3-1.3 1.6-0.5 3.2-0.5c4.4 0.1 12.3 0.1 14 4.1 5.4-3.5 12.9-2.5 18.2 1.2 4.4 3.1 9.5 12.4 10.6 17.7 1.1 5.2-1.4 21.3-4.2 25.9z"/><path class="f" d="m246.5 101h-171.6c-1.6 0-3.1-0.2-4.5-0.8-1.5-0.5-2.8-1.3-3.9-2.4-1.1-1-2.1-2.2-2.8-3.6-0.6-1.4-1-2.9-1.2-4.4-0.1-1.6 0.1-3.3 0.7-4.8 0.5-1.6 1.4-3 2.5-4.2 1.2-1.2 2.5-2.1 4-2.8 1.5-0.7 3.2-1 4.8-1h172c3.2 0 6.2 1.3 8.5 3.5 2.2 2.3 3.5 5.3 3.5 8.5 0 3.2-1.3 6.2-3.5 8.5-2.3 2.2-5.3 3.5-8.5 3.5z"/><path class="d" d="m345.2 120.5h-282.2q-0.4 0-0.7-0.3-0.3-0.3-0.3-0.7 0-0.4 0.3-0.7 0.3-0.3 0.7-0.3h282.2q0.4 0 0.7 0.3 0.3 0.3 0.3 0.7 0 0.4-0.3 0.7-0.3 0.3-0.7 0.3z"/><path fill-rule="evenodd" class="e" d="m333.5 101.5h-259c-3.3 0-6.5-1.3-8.8-3.7-2.4-2.3-3.7-5.5-3.7-8.8 0-3.3 1.3-6.5 3.7-8.8 2.3-2.4 5.5-3.7 8.8-3.7h259c3.3 0 6.5 1.3 8.8 3.7 2.4 2.3 3.7 5.5 3.7 8.8 0 3.3-1.3 6.5-3.7 8.8-2.3 2.4-5.5 3.7-8.8 3.7zm-259-23c-2.8 0-5.5 1.1-7.4 3.1-2 1.9-3.1 4.6-3.1 7.4 0 2.8 1.1 5.5 3.1 7.4 1.9 2 4.6 3.1 7.4 3.1h259c2.8 0 5.5-1.1 7.4-3.1 2-1.9 3.1-4.6 3.1-7.4 0-2.8-1.1-5.5-3.1-7.4-1.9-2-4.6-3.1-7.4-3.1z"/><path class="f" d="m169.5 195h-94.6c-1.6 0-3.1-0.2-4.5-0.8-1.5-0.5-2.8-1.3-3.9-2.4-1.1-1-2.1-2.2-2.8-3.6-0.6-1.4-1-2.9-1.2-4.4-0.1-1.6 0.1-3.3 0.7-4.8 0.5-1.6 1.4-3 2.5-4.2 1.2-1.2 2.5-2.1 4-2.8 1.5-0.7 3.2-1 4.8-1h95c3.2 0 6.2 1.3 8.5 3.5 2.2 2.3 3.5 5.3 3.5 8.5 0 3.2-1.3 6.2-3.5 8.5-2.3 2.2-5.3 3.5-8.5 3.5z"/><path class="d" d="m345.2 214.5h-282.2q-0.4 0-0.7-0.3-0.3-0.3-0.3-0.7 0-0.4 0.3-0.7 0.3-0.3 0.7-0.3h282.2q0.4 0 0.7 0.3 0.3 0.3 0.3 0.7 0 0.4-0.3 0.7-0.3 0.3-0.7 0.3z"/><path fill-rule="evenodd" class="e" d="m333.5 195.5h-259c-3.3 0-6.5-1.3-8.8-3.7-2.4-2.3-3.7-5.5-3.7-8.8 0-3.3 1.3-6.5 3.7-8.8 2.3-2.4 5.5-3.7 8.8-3.7h259c3.3 0 6.5 1.3 8.8 3.7 2.4 2.3 3.7 5.5 3.7 8.8 0 3.3-1.3 6.5-3.7 8.8-2.3 2.4-5.5 3.7-8.8 3.7zm-259-23c-2.8 0-5.5 1.1-7.4 3.1-2 1.9-3.1 4.6-3.1 7.4 0 2.8 1.1 5.5 3.1 7.4 1.9 2 4.6 3.1 7.4 3.1h259c2.8 0 5.5-1.1 7.4-3.1 2-1.9 3.1-4.6 3.1-7.4 0-2.8-1.1-5.5-3.1-7.4-1.9-2-4.6-3.1-7.4-3.1z"/><path class="f" d="m296.5 289h-221.6c-1.6 0-3.1-0.2-4.5-0.8-1.5-0.5-2.8-1.3-3.9-2.4-1.1-1-2.1-2.2-2.8-3.6-0.6-1.4-1-2.9-1.2-4.4-0.1-1.6 0.1-3.3 0.7-4.8 0.5-1.6 1.4-3 2.5-4.2 1.2-1.2 2.5-2.1 4-2.8 1.5-0.7 3.2-1 4.8-1h222c3.2 0 6.2 1.3 8.5 3.5 2.2 2.3 3.5 5.3 3.5 8.5 0 3.2-1.3 6.2-3.5 8.5-2.3 2.2-5.3 3.5-8.5 3.5z"/><path class="d" d="m345.2 308.5h-282.2q-0.4 0-0.7-0.3-0.3-0.3-0.3-0.7 0-0.4 0.3-0.7 0.3-0.3 0.7-0.3h282.2q0.4 0 0.7 0.3 0.3 0.3 0.3 0.7 0 0.4-0.3 0.7-0.3 0.3-0.7 0.3z"/><path fill-rule="evenodd" class="e" d="m333.5 289.5h-259c-3.3 0-6.5-1.3-8.8-3.7-2.4-2.3-3.7-5.5-3.7-8.8 0-3.3 1.3-6.5 3.7-8.8 2.3-2.4 5.5-3.7 8.8-3.7h259c3.3 0 6.5 1.3 8.8 3.7 2.4 2.3 3.7 5.5 3.7 8.8 0 3.3-1.3 6.5-3.7 8.8-2.3 2.4-5.5 3.7-8.8 3.7zm-259-23c-2.8 0-5.5 1.1-7.4 3.1-2 1.9-3.1 4.6-3.1 7.4 0 2.8 1.1 5.5 3.1 7.4 1.9 2 4.6 3.1 7.4 3.1h259c2.8 0 5.5-1.1 7.4-3.1 2-1.9 3.1-4.6 3.1-7.4 0-2.8-1.1-5.5-3.1-7.4-1.9-2-4.6-3.1-7.4-3.1z"/><path class="g" d="m230.2 88.8h-2v-77h144.7v2h-142.7v75z"/><path class="g" d="m379.1 23.9c-6.7 0-12-5.3-12-12 0-6.6 5.3-11.9 12-11.9 6.6 0 11.9 5.3 11.9 11.9 0 6.7-5.3 12-11.9 12z"/><path class="g" d="m160.8 182.8h2v-44h-144.7v2h142.7v42z"/><path class="g" d="m11.9 150.9c-6.6 0-11.9-5.3-11.9-12 0-6.6 5.3-11.9 11.9-11.9 6.7 0 12 5.3 12 11.9 0 6.7-5.3 12-12 12z"/><path class="g" d="m296.2 280.2h-2v55h122.7v-2h-120.7v-53z"/><path class="g" d="m423.1 347c-6.7 0-12-5.3-12-11.9 0-6.6 5.3-12 12-12 6.6 0 11.9 5.4 11.9 12 0 6.6-5.3 11.9-11.9 11.9z"/><path class="h" d="m699.6 597.5l-271.8 0.3c-0.3 0-0.6-0.1-0.8-0.4-0.3-0.2-0.4-0.5-0.4-0.8 0-0.3 0.1-0.6 0.4-0.9 0.2-0.2 0.5-0.3 0.8-0.3l271.8-0.3c0.3 0 0.6 0.1 0.8 0.3 0.2 0.3 0.3 0.6 0.3 0.9 0 0.3-0.1 0.6-0.3 0.8-0.2 0.2-0.5 0.4-0.8 0.4z"/><path class="d" d="m590.1 177.5q-0.5-0.7-1.2-1.2-0.7-0.5-1.6-0.7-0.8-0.2-1.7-0.1-0.8 0.1-1.6 0.6c1.5-2.1 0.4-5.6-1.9-7-2.6-1.6-5.9-1.3-9-1l-24.9 2.6c-2.9 0.3-5.8 0.6-8.4 2-2.6 1.3-4.7 4-4.5 6.8q-0.8-0.2-1.5-0.4-0.8-0.2-1.5-0.3-0.8-0.1-1.6-0.1-0.8 0-1.6 0c-2 0.3-4 1.8-4.2 3.9-0.4 3.3 3.5 5.2 6.7 6.1q9 2.6 17.9 5.1l-1.8 0.4q4.3 0.4 8.7 0.3 4.4-0.2 8.8-0.8 4.3-0.6 8.6-1.8 4.2-1.1 8.3-2.7c2.5-1 5.1-2.2 6.8-4.2 1.8-2.1 2.6-5.2 1.2-7.5z"/></svg>